<?xml version="1.0" encoding="UTF-8"?><svg id="Layer_2" xmlns="http://www.w3.org/2000/svg" xmlns:xlink="http://www.w3.org/1999/xlink" viewBox="0 0 328.84 327.01"><defs><style>.cls-1{fill:none;}.cls-2{clip-path:url(#clippath);}.cls-3{fill:#f5e5d7;}.cls-4{fill:#a5a3a4;}.cls-5{fill:#bfd6de;}.cls-6{fill:#cfd1d2;}.cls-7{clip-path:url(#clippath-1);}.cls-8{opacity:.8;}</style><clipPath id="clippath"><rect class="cls-1" x="32.49" y="30.66" width="296.36" height="296.35"/></clipPath><clipPath id="clippath-1"><rect class="cls-1" width="120.82" height="96.37"/></clipPath></defs><g id="Layer_1-2"><g><g id="Group_402"><g id="Group_401"><g class="cls-2"><g id="Group_400"><path id="Path_6125" class="cls-6" d="M32.49,34.14l3.47,292.88,292.88-3.47-3.47-292.88-292.88,3.47Zm25.72,21.23c.02,1.71-1.35,3.11-3.06,3.13l-10.04,.12c-1.71,.02-3.11-1.35-3.13-3.06l-.12-10.04c-.02-1.71,1.35-3.11,3.06-3.13l10.04-.12c1.71-.02,3.11,1.35,3.13,3.06l.12,10.04Zm28.69-.34c.02,1.71-1.35,3.11-3.06,3.13l-10.04,.12c-1.71,.02-3.11-1.35-3.13-3.06l-.12-10.04c-.02-1.71,1.35-3.11,3.06-3.13l10.04-.12c1.71-.02,3.11,1.35,3.13,3.06l.12,10.04Zm28.69-.34c.02,1.71-1.35,3.11-3.06,3.13l-10.04,.12c-1.71,.02-3.11-1.35-3.13-3.06l-.12-10.04c-.02-1.71,1.35-3.11,3.06-3.13l10.04-.12c1.71-.02,3.11,1.35,3.13,3.06l.12,10.04Zm28.69-.34c.02,1.71-1.35,3.11-3.06,3.13l-10.04,.12c-1.71,.02-3.11-1.35-3.13-3.06l-.12-10.04c-.02-1.71,1.35-3.11,3.06-3.13l10.04-.12c1.71-.02,3.11,1.35,3.13,3.06l.12,10.04Zm28.69-.34c.02,1.71-1.35,3.11-3.06,3.13l-10.04,.12c-1.71,.02-3.11-1.35-3.13-3.06l-.12-10.04c-.02-1.71,1.35-3.11,3.06-3.13l10.04-.12c1.71-.02,3.11,1.35,3.13,3.06l.12,10.04Zm28.69-.34c.02,1.71-1.35,3.11-3.06,3.13l-10.04,.12c-1.71,.02-3.11-1.35-3.13-3.06l-.12-10.04c-.02-1.71,1.35-3.11,3.06-3.13l10.04-.12c1.71-.02,3.11,1.35,3.13,3.06l.12,10.04Zm28.69-.34c.02,1.71-1.35,3.11-3.06,3.13l-10.04,.12c-1.71,.02-3.11-1.35-3.13-3.06l-.12-10.04c-.02-1.71,1.35-3.11,3.06-3.13l10.04-.12c1.71-.02,3.11,1.35,3.13,3.06l.12,10.04Zm28.69-.34c.02,1.71-1.35,3.11-3.06,3.13l-10.04,.12c-1.71,.02-3.11-1.35-3.13-3.06l-.12-10.04c-.02-1.71,1.35-3.11,3.06-3.13l10.04-.12c1.71-.02,3.11,1.35,3.13,3.06l.12,10.04Zm28.69-.34c.02,1.71-1.35,3.11-3.06,3.13l-10.04,.12c-1.71,.02-3.11-1.35-3.13-3.06l-.12-10.04c-.02-1.71,1.35-3.11,3.06-3.13l10.04-.12c1.71-.02,3.11,1.35,3.13,3.06l.12,10.04Zm28.69-.34c.02,1.71-1.35,3.11-3.06,3.13l-10.04,.12c-1.71,.02-3.11-1.35-3.13-3.06l-.12-10.04c-.02-1.71,1.35-3.11,3.06-3.13l10.04-.12c1.71-.02,3.11,1.35,3.13,3.06l.12,10.04Z"/></g></g></g></g><path id="Path_6126" class="cls-5" d="M27.13,29.51l3.47,292.88,292.88-3.47-3.47-292.88L27.13,29.51Zm25.72,21.23c.02,1.71-1.35,3.11-3.06,3.13l-10.04,.12c-1.71,.02-3.11-1.35-3.13-3.06l-.12-10.04c-.02-1.71,1.35-3.11,3.06-3.13l10.04-.12c1.71-.02,3.11,1.35,3.13,3.06l.12,10.04Zm28.69-.34c.02,1.71-1.35,3.11-3.06,3.13l-10.04,.12c-1.71,.02-3.11-1.35-3.13-3.06l-.12-10.04c-.02-1.71,1.35-3.11,3.06-3.13l10.04-.12c1.71-.02,3.11,1.35,3.13,3.06l.12,10.04Zm28.69-.34c.02,1.71-1.35,3.11-3.06,3.13l-10.04,.12c-1.71,.02-3.11-1.35-3.13-3.06l-.12-10.04c-.02-1.71,1.35-3.11,3.06-3.13l10.04-.12c1.71-.02,3.11,1.35,3.13,3.06l.12,10.04Zm28.69-.34c.02,1.71-1.35,3.11-3.06,3.13l-10.04,.12c-1.71,.02-3.11-1.35-3.13-3.06l-.12-10.04c-.02-1.71,1.35-3.11,3.06-3.13l10.04-.12c1.71-.02,3.11,1.35,3.13,3.06l.12,10.04Zm28.69-.34c.02,1.71-1.35,3.11-3.06,3.13l-10.04,.12c-1.71,.02-3.11-1.35-3.13-3.06l-.12-10.04c-.02-1.71,1.35-3.11,3.06-3.13l10.04-.12c1.71-.02,3.11,1.35,3.13,3.06l.12,10.04Zm28.69-.34c.02,1.71-1.35,3.11-3.06,3.13l-10.04,.12c-1.71,.02-3.11-1.35-3.13-3.06l-.12-10.04c-.02-1.71,1.35-3.11,3.06-3.13l10.04-.12c1.71-.02,3.11,1.35,3.13,3.06l.12,10.04Zm28.69-.34c.02,1.71-1.35,3.11-3.06,3.13l-10.04,.12c-1.71,.02-3.11-1.35-3.13-3.06l-.12-10.04c-.02-1.71,1.35-3.11,3.06-3.13l10.04-.12c1.71-.02,3.11,1.35,3.13,3.06l.12,10.04Zm28.69-.34c.02,1.71-1.35,3.11-3.06,3.13l-10.04,.12c-1.71,.02-3.11-1.35-3.13-3.06l-.12-10.04c-.02-1.71,1.35-3.11,3.06-3.13l10.04-.12c1.71-.02,3.11,1.35,3.13,3.06l.12,10.04Zm28.69-.34c.02,1.71-1.35,3.11-3.06,3.13l-10.04,.12c-1.71,.02-3.11-1.35-3.13-3.06l-.12-10.04c-.02-1.71,1.35-3.11,3.06-3.13l10.04-.12c1.71-.02,3.11,1.35,3.13,3.06l.12,10.04Zm28.69-.34c.02,1.71-1.35,3.11-3.06,3.13l-10.04,.12c-1.71,.02-3.11-1.35-3.13-3.06l-.12-10.04c-.02-1.71,1.35-3.11,3.06-3.13l10.04-.12c1.71-.02,3.11,1.35,3.13,3.06l.12,10.04Z"/><path id="Path_6127" class="cls-4" d="M44.81,99.5l2.65-.03,2.14-.03,2.65-.03,3.16-.04,2.65-.03,2.14-.03,2.65-.03,2.65-.03,3.16-.04,2.14-.03,2.84-.03,2.47-.03,3.16-.04,2.65-.03,2.14-.03,2.65-.03,3.16-.04,2.14-.03,2.65-.03,2.65-.03,3.16-.03,2.14-.03,3.16-.04,2.14-.03,3.16-.04,2.14-.03,2.65-.03,2.65-.03,3.16-.04,2.14-.03,2.65-.03,3.16-.04,2.14-.03,2.65-.03,2.65-.03,3.16-.04,2.14-.03,2.65-.03,2.65-.03h.51l2.65-.03,2.14-.03,3.16-.04,2.14-.03,3.16-.04,2.14-.03,3.16-.04,2.14-.03,3.16-.04,2.14-.03,2.65-.03,2.65-.03,3.16-.04,2.14-.03,2.65-.03,2.65-.03,3.16-.04,2.14-.03,2.65-.03,2.65-.03,3.16-.04,2.65-.03,2.14-.03,3.16-.04,2.14-.03,3.16-.04,2.14-.03,3.16-.04,2.14-.03,2.65-.03,3.16-.04,2.65-.03,2.14-.03,2.65-.03,2.65-.03,3.16-.04,2.14-.03,2.65-.03,2.65-.03,3.16-.04,2.65-.03,2.14-.03,2.65-.03,3.16-.04,2.65-.03,2.14-.03,2.65-.03,3.16-.04,2.14-.03,2.65-.03,2.65-.03,3.16-.04,2.14-.03,2.65-.03,3.16-.04,2.14-.03,2.65-.03,2.65-.03,3.16-.04,2.65-.03v-.65l-3.17,.04-2.65,.03-2.14,.03-2.65,.03-3.16,.04-2.14,.03-2.65,.03-3.16,.04-2.14,.03-2.65,.03-3.16,.04-2.65,.03-2.14,.03-2.65,.03-2.65,.03-3.16,.04-2.14,.03-2.65,.03-2.65,.03-3.16,.04-2.65,.03-2.14,.03-2.65,.03-3.16,.04-2.14,.03h-.51l-2.14,.03-2.65,.03-3.16,.04-2.14,.03-2.65,.03-2.65,.03-3.16,.04-2.14,.03-2.65,.03-2.65,.03-3.16,.04-2.14,.03-2.65,.03-3.16,.04-2.65,.03-2.14,.03-3.16,.04-2.65,.03-2.65,.03-2.14,.03-2.65,.03-3.16,.04-2.14,.03-2.65,.03-2.65,.03-3.16,.04-2.14,.03-3.16,.04-2.14,.03-3.16,.04-2.14,.03h-.51l-2.14,.03-2.65,.03-3.16,.04-2.14,.03-2.65,.03-2.65,.03-3.16,.04-2.14,.03-2.65,.03-2.65,.03-2.65,.03-2.65,.03-2.65,.03-3.16,.04-2.14,.03-2.65,.03-2.65,.03-3.16,.04-2.14,.03-2.65,.03-2.65,.03-3.16,.04-2.14,.03-2.65,.03-2.65,.03-3.16,.04-2.14,.03-3.16,.04-2.14,.03-2.65,.03-3.16,.04-2.14,.03-2.65,.03-2.65,.03-2.65,.03-2.65,.03-2.65,.03-2.65,.03-2.65,.03-2.65,.03-2.65,.03-2.65,.03-2.65,.03-3.16,.04v.65l3.17-.04Z"/><path id="Path_6128" class="cls-4" d="M44.56,121.51l2.65-.03,2.65-.03,3.16-.04,2.14-.03,2.65-.03,3.16-.04,2.14-.03,2.65-.03,3.16-.04,2.14-.03,2.65-.03,2.65-.03,3.16-.04,2.14-.03,2.65-.03,2.65-.03,3.16-.04,2.14-.03,2.65-.03,2.83-.03,2.98-.03,2.14-.03,2.65-.03,2.65-.03,3.16-.04,2.14-.03,2.65-.03,3.16-.04,2.65-.03,2.14-.03,2.65-.03,3.16-.04,2.14-.03,3.16-.04,2.14-.03,3.16-.04,2.65-.03,2.14-.03,2.65-.03,3.16-.04,2.14-.03,2.65-.03,2.65-.03,3.16-.04,2.14-.03,2.65-.03,2.65-.03,3.16-.04,2.14-.03,2.65-.03,3.16-.04,2.65-.03,2.14-.03,2.65-.03,2.65-.03,3.16-.04,2.14-.03,2.65-.03,2.65-.03,3.16-.04,2.14-.03,2.83-.03,2.98-.04,2.14-.03,3.16-.04,2.14-.03,3.16-.04,2.14-.03,2.65-.03,3.16-.04,2.65-.03,2.14-.03,2.65-.03,3.16-.04,2.65-.03,2.14-.03,2.65-.03,2.65-.03,3.16-.04,2.14-.03,2.65-.03,2.65-.03,3.16-.04,2.14-.03,2.65-.03,2.65-.03,3.16-.04,2.14-.03,3.16-.04,2.14-.03h.51l2.65-.03,2.14-.03,3.16-.04,2.65-.03,2.14-.03,2.65-.03,2.65-.03,3.16-.04,2.65-.03v-.65l-2.66,.03-3.16,.04-2.14,.03-2.65,.03-2.65,.03-2.65,.03-2.65,.03-3.16,.04-2.14,.03-2.65,.03-2.65,.03-3.16,.04-2.14,.03-2.65,.03-2.65,.03-3.16,.04-2.14,.03-2.65,.03-3.16,.04-2.14,.03-2.65,.03-2.65,.03-2.65,.03-2.65,.03-2.65,.03-2.65,.03-2.65,.03-2.65,.03-2.65,.03-2.65,.03-2.65,.03-2.65,.03-3.16,.04-2.14,.03-2.65,.03-2.65,.03-2.65,.03-2.65,.03-2.65,.03-2.65,.03-2.65,.03-2.65,.03-2.65,.03-2.65,.03-2.65,.03-2.65,.03-2.65,.03-2.65,.03-2.65,.03-2.65,.03-2.65,.03-2.65,.03-2.65,.03-2.65,.03-2.65,.03-2.65,.03-2.65,.03-2.65,.03-2.65,.03-2.65,.03-3.16,.04-2.14,.03-2.65,.03-3.16,.04-2.14,.03-2.65,.03-2.65,.03-2.65,.03-2.65,.03-2.65,.03-2.65,.03-2.65,.03-2.65,.03-2.65,.03-2.65,.03-2.65,.03-2.65,.03-2.65,.03-2.65,.03-2.65,.03-2.65,.03-2.65,.03-2.65,.03-2.65,.03-2.65,.03-2.65,.03-2.65,.03-2.65,.03-3.16,.04-2.14,.03-2.65,.03-3.16,.04-2.14,.03-2.65,.03-2.65,.03-2.65,.03-2.65,.03-2.65,.03-2.65,.03-3.16,.04v.65l2.66-.04Z"/><path id="Path_6129" class="cls-4" d="M44.82,143.5l2.65-.03h0l2.65-.03,2.65-.03,2.65-.03,2.65-.03,2.65-.03,2.65-.03,2.65-.03,2.65-.03,2.65-.03,2.65-.03,3.16-.04,2.14-.03,2.65-.03,2.65-.03,2.65-.03,2.65-.03,2.65-.03,2.65-.03,2.65-.03,2.65-.03,2.65-.03,2.65-.03,2.65-.03,2.65-.03,3.16-.04,2.14-.03,2.65-.03,2.65-.03,2.65-.03,2.65-.03,2.65-.03,2.65-.03,2.65-.03,2.65-.03,2.65-.03h0l2.65-.03,2.65-.03,2.65-.03,2.65-.03h0l2.65-.03,2.65-.03,3.16-.04,2.14-.03,2.65-.03,2.65-.03,2.65-.03,2.65-.03,2.65-.03,2.65-.03,2.65-.03,2.65-.03,2.65-.03,3.16-.04,2.14-.03,3.16-.04,2.65-.03,2.14-.03,2.65-.03,3.16-.04,2.14-.03,2.65-.03,2.65-.03,2.65-.03,2.65-.03,2.65-.03,2.65-.03,2.65-.03,2.65-.03,2.65-.03,2.65-.03,2.65-.03,2.65-.03,2.65-.03,2.65-.03,2.65-.03,2.65-.03,2.65-.03,3.16-.04,2.14-.03,2.65-.03,2.65-.03,3.16-.04,2.14-.03,3.16-.04,2.14-.03,3.16-.04,2.65-.03,2.14-.03,2.65-.03,3.16-.04,2.14-.03,2.65-.03,2.65-.03,2.65-.03,2.65-.03,2.65-.03,3.16-.04,2.65-.03v-.65l-2.66,.03-2.65,.03-2.65,.03-2.65,.03-2.65,.03-2.65,.03-2.65,.03-2.65,.03-2.65,.03-3.16,.04-2.14,.03-2.65,.03h0l-3.16,.04-2.14,.03-2.65,.03-2.65,.03h0l-2.65,.03-2.65,.03-2.65,.03-2.65,.03-2.65,.03-2.65,.03-2.65,.03-2.65,.03-2.65,.03-2.65,.03-2.65,.03-2.65,.03-2.65,.03-2.65,.03-2.65,.03-2.65,.03-2.65,.03-2.65,.03-2.65,.03-2.65,.03-2.65,.03-3.16,.04-2.14,.03-2.65,.03-3.16,.04-2.14,.03-2.65,.03-2.65,.03-2.65,.03-2.65,.03-2.65,.03-2.65,.03-2.65,.03-2.65,.03-2.65,.03-2.65,.03-2.65,.03-2.65,.03-2.65,.03-2.65,.03-2.65,.03-2.65,.03-3.16,.04-2.14,.03-2.65,.03-2.65,.03-3.16,.04-2.14,.03-2.65,.03-2.84,.03-2.98,.04-2.14,.03-3.16,.04-2.14,.03-2.65,.03-2.65,.03-2.65,.03-2.65,.03-2.65,.03-2.65,.03-2.65,.03-2.65,.03-2.65,.03-2.65,.03-2.65,.03-3.16,.04-2.65,.03-2.14,.03-2.65,.03-3.16,.04-2.14,.03-2.65,.03-2.65,.03-3.16,.04-2.14,.03-2.65,.03-2.65,.03-3.16,.04-2.14,.03-2.65,.03-2.84,.03-2.98,.03-2.14,.03-3.16,.04v.65l2.66-.03Z"/><path id="Path_6130" class="cls-4" d="M45.08,165.5l3.16-.04,2.14-.03,2.65-.03,3.16-.04,2.65-.03,2.14-.03,3.16-.04,2.14-.03,3.16-.04,2.14-.03,2.65-.03,2.65-.03,3.16-.04,2.14-.03,2.65-.03,2.65-.03,2.65-.03,2.65-.03,2.65-.03,2.65-.03,2.65-.03,2.65-.03,2.65-.03,2.65-.03,2.65-.03,2.65-.03,2.65-.03,2.65-.03,2.65-.03,2.65-.03,2.65-.03,3.16-.04,2.14-.03,2.65-.03,3.16-.04,2.14-.03,2.65-.03,2.65-.03,2.65-.03,2.65-.03,2.65-.03,2.65-.03,2.65-.03,2.65-.03,2.65-.03,2.65-.03,2.65-.03,2.65-.03,3.16-.04,2.14-.03,2.65-.03,2.65-.03,2.65-.03,2.65-.03,2.65-.03,2.65-.03h0l2.65-.03,2.65-.03,2.65-.03,2.65-.03,2.65-.03,2.65-.03,2.65-.03h0l2.65-.03,2.65-.03,2.65-.03,2.65-.03,2.65-.03,2.65-.03,2.65-.03,2.65-.03,2.65-.03,2.65-.03,2.65-.03,2.65-.03,2.65-.03,3.16-.04,2.14-.03,2.65-.03,3.16-.04,2.14-.03,2.65-.03,2.65-.03,2.65-.03,2.65-.03,2.65-.03,2.65-.03,2.65-.03,2.65-.03,2.65-.03,2.65-.03,2.65-.03,2.65-.03,2.65-.03,2.65-.03,2.65-.03,2.65-.03,2.65-.03,3.16-.04v-.65l-3.17,.04-2.14,.03-2.65,.03-2.83,.03-2.98,.04-2.14,.03-2.65,.03-2.65,.03-2.65,.03-2.65,.03-2.65,.03-3.16,.04-2.14,.03-2.65,.03-2.83,.03-2.98,.03-2.14,.03-3.16,.04-2.14,.03-3.16,.04-2.14,.03-2.65,.03-2.65,.03-3.16,.04-2.14,.03-2.65,.03-2.65,.03-3.16,.04-2.14,.03-2.65,.03-3.16,.04-2.65,.03-2.14,.03-2.65,.03-3.16,.04-2.65,.03-2.14,.03-2.65,.03-3.16,.04-2.14,.03-2.65,.03-2.65,.03-3.16,.04-2.14,.03-2.65,.03-2.83,.03-2.98,.03-2.14,.03-3.16,.04-2.14,.03-3.16,.04-2.14,.03-2.65,.03-3.16,.04-2.65,.03-2.14,.03-2.65,.03-2.65,.03-3.16,.04-2.65,.03-2.14,.03-2.65,.03-3.16,.04-2.14,.03-2.65,.03-2.65,.03-3.16,.04-2.14,.03-2.65,.03-3.16,.04-2.14,.03-2.65,.03-3.16,.04-2.65,.03-2.14,.03-2.65,.03-3.16,.04-2.65,.03-2.14,.03-2.65,.03-2.65,.03-3.16,.04-2.14,.03-2.65,.03-2.65,.03-3.16,.04-2.14,.03-2.65,.03-2.65,.03-3.16,.04-2.32,.03-2.98,.04-2.14,.03-3.16,.04-2.14,.03-3.16,.04-2.14,.03-3.16,.04-2.14,.03-3.16,.04v.65l2.66-.03Z"/><path id="Path_6131" class="cls-4" d="M45.34,187.5l3.16-.04,2.14-.03,2.65-.03,2.65-.03,3.16-.04,2.14-.03,2.65-.03,2.65-.03,3.16-.04,2.14-.03,2.65-.03,2.65-.03,3.16-.04,2.14-.03,2.65-.03,2.65-.03,3.16-.04,2.65-.03,2.14-.03,2.65-.03,3.16-.04,2.14-.03,2.65-.03,2.65-.03,3.16-.04,2.14-.03,3.16-.04,2.14-.03,3.16-.04,2.14-.03h.51l2.14-.03,3.16-.04,2.14-.03,2.65-.03,2.65-.03,3.16-.04,2.65-.03,2.14-.03,2.65-.03,3.16-.04,2.65-.03,2.14-.03,2.65-.03,3.16-.04,2.14-.03,2.65-.03,2.65-.03,3.16-.04,2.14-.03,2.65-.03,2.65-.03,3.16-.04,2.14-.03,2.65-.03,3.16-.04,2.65-.03,2.14-.03,3.16-.04,2.14-.03,3.16-.04,2.14-.03,2.65-.03,3.16-.04,2.14-.03,2.65-.03,2.65-.03,3.16-.04,2.14-.03,2.65-.03,2.65-.03,3.16-.04,2.14-.03h.51l2.14-.03,2.65-.03,3.16-.04,2.14-.03,2.65-.03,2.65-.03,3.16-.04,2.14-.03,2.65-.03,2.65-.03,2.65-.03,2.65-.03,2.65-.03,3.16-.04,2.14-.03,2.65-.03,2.65-.03,2.65-.03,2.65-.03,2.65-.03,2.65-.03,3.16-.04,2.14-.03,2.65-.03,2.65-.03,3.16-.04,2.65-.03v-.65l-3.17,.04-2.14,.03-3.16,.04-2.14,.03-3.16,.04-2.14,.03-3.16,.04-2.65,.03-2.65,.03-2.14,.03-2.65,.03-3.16,.04-2.14,.03-2.65,.03-2.65,.03-3.16,.04-2.14,.03-2.65,.03-2.65,.03-3.16,.04-2.14,.03-2.65,.03-2.65,.03h-.51l-2.65,.03-2.14,.03-3.16,.04-2.14,.03-3.16,.04-2.14,.02-2.65,.03-2.65,.03-3.16,.04-2.14,.03-2.65,.03-2.65,.03-3.16,.04-2.32,.03-2.47,.03-3.16,.04-2.65,.03-2.14,.03-2.65,.03-3.16,.04-2.14,.03-3.16,.04-2.14,.03-3.16,.04-2.14,.03-3.16,.04-2.14,.03-3.16,.04-2.14,.03-2.65,.03-3.16,.04-2.65,.03-2.14,.03-2.65,.03-2.65,.03-3.16,.04-2.14,.03-2.65,.03-2.65,.03-3.16,.04-2.65,.03-2.14,.03-2.65,.03-3.16,.04-2.65,.03-2.14,.03-3.16,.04-2.32,.03-2.47,.03-2.65,.03-3.16,.04-2.14,.03-2.65,.03-2.65,.03-3.16,.04-2.14,.03-2.65,.03-2.65,.03-3.16,.04-2.14,.03-2.65,.03-2.65,.03-3.16,.04-2.65,.03-2.14,.03-2.65,.03-3.16,.04-2.14,.03-2.65,.03-2.65,.03-3.16,.04-2.14,.03-3.16,.04-2.14,.03-3.16,.04-2.14,.03h-.51l-2.65,.03v.65l2.66-.02Z"/><path id="Path_6132" class="cls-4" d="M45.61,209.5l3.16-.04,2.14-.03,2.65-.03,3.16-.04,2.65-.03,2.14-.03,2.65-.03,3.16-.04h0l2.65-.03,2.14-.03,2.65-.03,2.65-.03,3.16-.04,2.14-.03,2.65-.03,2.65-.03,3.16-.04,2.14-.03,2.83-.03,2.47-.03,3.16-.04,2.32-.03,2.98-.03,2.14-.03,3.16-.04,2.14-.03,3.16-.04,2.14-.03,3.16-.04,2.14-.03,2.65-.03,3.16-.04,2.14-.03,2.65-.03,2.65-.03,3.16-.04,2.14-.03,2.65-.03,2.65-.03,3.16-.04,2.14-.03,2.65-.03,2.65-.03,3.16-.04,2.14-.03,3.16-.04,2.14-.03,3.16-.04,2.14-.03,2.65-.03h.51l2.14-.03,3.16-.04,2.32-.03,2.47-.03,2.65-.03,3.16-.04,2.14-.03,2.65-.03,2.65-.03,3.16-.04,2.14-.03,2.65-.03,3.16-.04,2.32-.03,2.98-.03,2.14-.03,3.16-.04,2.14-.03,3.16-.04,2.14-.03,3.16-.04,2.14-.03,2.65-.03,2.65-.03,3.16-.04,2.14-.03,2.65-.03,3.16-.04,2.65-.03,2.14-.03,2.65-.03h.51l2.14-.03,3.16-.04,2.65-.03,2.14-.03,2.65-.03,3.16-.04,2.65-.03,2.14-.03,2.65-.03,3.16-.04,2.14-.03,2.65-.03,3.16-.04,2.32-.03,2.47-.03,2.65-.03,3.16-.04,2.65-.03v-.65l-3.17,.04-2.14,.03-3.16,.04-2.14,.03-3.16,.04-2.14,.03-2.65,.03-3.16,.04-2.14,.03-2.65,.03-2.65,.03-3.16,.04-2.14,.03-2.65,.03-2.65,.03-3.16,.04-2.65,.03-2.14,.03-2.65,.03-3.16,.04-2.65,.03h0l-2.14,.03-2.65,.03-3.16,.04-2.14,.03-2.65,.03-2.65,.03-3.16,.04-2.14,.03-2.65,.03-3.16,.04-2.65,.03-2.14,.03-2.65,.03-2.65,.03-3.16,.04-2.14,.03-2.65,.03-3.16,.04-2.65,.03-2.14,.03-2.65,.03-3.16,.04-2.14,.03-3.16,.04-2.14,.03-3.16,.04-2.14,.03h-.51l-2.14,.03-2.65,.03-3.16,.04-2.14,.03-2.65,.03-2.65,.03-3.16,.04-2.14,.03-2.65,.03-2.65,.03-3.16,.04-2.14,.03-2.65,.03-2.65,.03-2.65,.03-2.65,.03-2.65,.03-2.65,.03-2.65,.03-2.65,.03-2.65,.03-3.16,.04-2.14,.03-2.65,.03-3.16,.04-2.65,.03-2.14,.03-3.16,.04-2.14,.03-3.16,.04-2.14,.03-2.65,.03-2.65,.03-3.16,.04-2.14,.03-2.65,.03-2.65,.03-2.65,.03-2.65,.03-2.65,.03-2.65,.03-2.65,.03-2.65,.03-2.65,.03-2.65,.03-2.65,.03h0l-2.65,.03-2.65,.03-2.65,.03-2.65,.03-2.65,.03-3.16,.04v.65l2.66-.04Z"/><path id="Path_6133" class="cls-4" d="M46.38,231.49l2.14-.03,2.65-.03,2.65-.03,2.65-.03,2.65-.03,2.65-.03,2.65-.03,2.65-.03,2.65-.03,2.65-.03,2.65-.03,2.65-.03,3.16-.04,2.65-.03,2.14-.03,2.65-.03,3.16-.04,2.14-.03,2.65-.03,2.65-.03,3.16-.04,2.14-.03,2.65-.03,2.65-.03,3.16-.04,2.14-.03,2.65-.03,2.84-.03,2.98-.04,2.14-.03,2.65-.03,3.16-.04,2.14-.03,2.65-.03,2.65-.03,3.16-.04,2.14-.03,2.65-.03,2.65-.03,3.16-.04,2.14-.03,3.16-.04,2.14-.03,3.16-.04,2.65-.03,2.14-.03,2.65-.03,3.16-.04,2.14-.03,2.65-.03,3.16-.04,2.65-.03,2.14-.03,2.65-.03,3.16-.04,2.65-.03,2.14-.03,2.65-.03,2.65-.03h.51l2.65-.03,2.14-.03,2.65-.03,3.16-.04,2.14-.03,2.65-.03,2.65-.03,3.16-.04,2.14-.03,2.65-.03,2.83-.03,2.98-.03,2.14-.03,2.83-.03,2.98-.03,2.65-.03,2.14-.03,2.65-.03,2.65-.03,3.16-.04,2.14-.03,2.65-.03,2.65-.03,3.16-.04,2.14-.03,2.65-.03,2.65-.03,3.16-.04,2.14-.03,2.65-.03,2.65-.03,3.16-.04,2.14-.03,3.16-.04,2.65-.03,2.14-.03,2.65-.03,3.16-.04,2.65-.03,2.65-.03v-.65l-2.66,.03-2.65,.03-2.65,.03-2.65,.03-2.65,.03h0l-2.65,.03-2.65,.03-3.16,.04-2.14,.03-2.65,.03-2.65,.03-3.16,.04-2.14,.03-2.65,.03-2.65,.03-2.65,.03-2.65,.03-2.65,.03-2.65,.03-2.65,.03-2.65,.03-3.16,.04-2.14,.03-2.65,.03-3.16,.04-2.14,.03-2.65,.03-2.65,.03-2.65,.03-2.65,.03-2.65,.03-2.65,.03-2.65,.03-2.65,.03-2.65,.03-2.65,.03-2.65,.03-2.65,.03-2.65,.03-2.65,.03-2.65,.03-2.65,.03-2.65,.03-2.65,.03-2.65,.03-2.65,.03-2.65,.03-2.65,.03-2.65,.03-3.16,.04-2.14,.03-2.65,.03-3.16,.04-2.14,.03-2.65,.03-2.65,.03-2.65,.03-2.65,.03-2.65,.03-2.65,.03-2.65,.03-2.65,.03-2.65,.03-2.65,.03-2.65,.03-2.65,.03-2.65,.03-2.65,.03-2.65,.03-2.65,.03-2.65,.03-2.65,.03-2.65,.03-2.65,.03-2.65,.03-2.65,.03-2.65,.03-2.65,.03-2.65,.03-2.65,.03-3.16,.04-2.14,.03-2.65,.03-3.16,.04-2.14,.03-2.65,.03-2.65,.03-2.65,.03-2.65,.03-2.65,.03-2.65,.03-2.65,.03-2.65,.03-2.65,.03-3.16,.04-2.14,.03-2.65,.03-2.65,.03-2.65,.03-3.16,.04v.65l3.17-.04Z"/><path id="Path_6134" class="cls-4" d="M46.13,253.5l2.65-.03,2.65-.03,2.65-.03,2.65-.03,2.65-.03,3.16-.04,2.14-.03,2.65-.03,2.65-.03,2.65-.03,2.65-.03,2.65-.03,2.65-.03,2.65-.03,2.65-.03,2.65-.03,2.65-.03,2.65-.03,2.65-.03,3.16-.04,2.14-.03,2.65-.03,3.16-.04,2.14-.03,2.65-.03,2.65-.03,2.65-.03,2.65-.03,2.65-.03,2.65-.03,2.65-.03,2.65-.03,2.65-.03,2.65-.03,2.65-.03,2.65-.03,3.16-.04,2.14-.03,2.65-.03,2.65-.03h0l2.65-.03,2.65-.03,2.65-.03,2.65-.03,2.65-.03,2.65-.03,2.65-.03,2.65-.03,2.65-.03,2.65-.03,3.16-.04,2.14-.03,2.65-.03,2.65-.03,2.65-.03,2.65-.03h0l2.65-.03,2.65-.03,2.65-.03,3.16-.04,2.14-.03,2.65-.03,2.65-.03,2.65-.03,3.16-.04,2.14-.03,2.65-.03,3.16-.04,2.14-.03,2.65-.03,2.65-.03,2.65-.03,2.65-.03,2.65-.03,2.65-.03,2.65-.03,2.65-.03,2.65-.03,3.16-.04,2.14-.03,2.65-.03,2.65-.03,3.16-.04,2.14-.03,2.65-.03,2.65-.03,3.16-.04,2.14-.03,2.65-.03,2.65-.03,3.16-.04,2.14-.03,3.16-.04,2.14-.03,2.65-.03,3.16-.04,2.14-.03,2.65-.03,3.16-.04v-.65l-2.66,.03-3.16,.04-2.14,.03-2.65,.03-2.65,.03h0l-2.65,.03-2.65,.03-2.65,.03-2.65,.03-2.65,.03-2.65,.03-2.65,.03-2.65,.03-2.65,.03-2.65,.03-2.65,.03-2.65,.03-2.65,.03-2.65,.03-2.65,.03-2.65,.03-2.65,.03-2.65,.03-2.65,.03-2.65,.03-2.65,.03-2.65,.03-2.65,.03-2.65,.03-3.16,.04-2.14,.03-2.65,.03-3.16,.04-2.14,.03-2.65,.03-2.65,.03-2.65,.03-2.65,.03-2.65,.03-2.65,.03-2.65,.03-2.65,.03-2.65,.03-3.16,.04-2.14,.03-2.65,.03-2.65,.03-2.65,.03-2.65,.03-2.65,.03-2.65,.03-2.65,.03-2.65,.03-2.65,.03-2.65,.03-2.65,.03-2.65,.03-2.84,.03-2.98,.03-2.14,.03-3.16,.04-2.14,.03-3.16,.04-2.14,.03-2.65,.03-2.65,.03-3.16,.04-2.14,.03-2.65,.03-2.65,.03-2.65,.03-2.65,.03-2.65,.03-2.65,.03-3.16,.04-2.14,.03-2.65,.03-3.16,.04-2.14,.03-2.65,.03-2.65,.03-3.16,.04-2.14,.03-2.65,.03-2.65,.03-3.16,.04-2.14,.03-2.65,.03-2.83,.03-2.98,.04-2.14,.03-2.65,.03-2.65,.03-3.16,.04-2.14,.03-2.65,.03-3.16,.04-2.65,.03-2.14,.03-3.16,.04v.65l2.66-.03Z"/><path id="Path_6135" class="cls-4" d="M46.39,275.49l3.16-.04,2.14-.03,2.65-.03,2.65-.03,3.16-.04,2.14-.03,2.65-.03,2.65-.03,3.16-.04,2.14-.03,2.65-.03,2.65-.03,3.16-.04,2.14-.03,3.16-.04,2.14-.03,2.65-.03,2.65-.03,2.65-.03,2.65-.03,2.65-.03,2.65-.03,2.65-.03,2.65-.03,2.65-.03,2.65-.03,2.65-.03,2.65-.03,2.65-.03,2.65-.03,2.65-.03,3.16-.04,2.14-.03,2.65-.03,2.65-.03,2.65-.03,2.65-.03,2.65-.03,2.65-.03,2.65-.03,2.65-.03,2.65-.03,3.16-.04,2.14-.03,2.65-.03,3.16-.04,2.14-.03,2.65-.03,2.65-.03,2.65-.03,2.65-.03,2.65-.03,2.65-.03,2.65-.03,2.65-.03,2.65-.03,3.16-.04,2.14-.03,2.65-.03,2.65-.03h0l2.65-.03,2.65-.03,2.65-.03,2.65-.03,2.65-.03,2.65-.03,2.65-.03,2.65-.03,2.65-.03,2.65-.03,2.65-.03,2.65-.03,2.65-.03,3.16-.04,2.14-.03,2.65-.03,2.65-.03,2.65-.03,2.65-.03h0l2.65-.03,2.65-.03,2.65-.03,2.65-.03,2.65-.03,2.65-.03,2.65-.03,2.65-.03,3.16-.04,2.14-.03,2.65-.03,2.65-.03,2.65-.03,2.65-.03,2.65-.03,2.65-.03,2.65-.03,2.65-.03,2.65-.03,3.16-.04v-.65l-3.17,.04-2.14,.03-2.65,.03-2.65,.03-3.16,.04-2.14,.03-3.16,.04-2.14,.03-2.65,.03-3.16,.04-2.14,.03-3.16,.04-2.14,.03-2.65,.03-2.65,.03-3.16,.04-2.14,.03-2.65,.03-2.65,.03-3.16,.04-2.65,.03-2.14,.03-2.65,.03-3.16,.04-2.14,.03-2.65,.03-2.65,.03-3.16,.04-2.14,.03-2.65,.03-3.16,.04-2.65,.03-2.14,.03-2.65,.03-3.16,.04-2.65,.03-2.14,.03-2.83,.03-2.98,.04-2.14,.03-2.65,.03-2.65,.03-3.16,.04-2.14,.03-2.65,.03-2.65,.03-3.16,.04-2.14,.03-2.65,.03-3.16,.04-2.65,.03-2.65,.03-2.14,.03-3.16,.04-2.65,.03-2.14,.03-2.65,.03-2.65,.03-3.16,.04-2.14,.03-2.65,.03-2.65,.03-3.16,.04-2.14,.03-2.65,.03-2.65,.03h-.51l-2.65,.03-2.14,.03-3.16,.04h0l-2.65,.03-2.14,.03-2.65,.03-3.16,.04-2.65,.03-2.14,.03-2.65,.03-2.65,.03-3.16,.04-2.14,.03-2.83,.03-2.47,.03-3.16,.04-2.65,.03-2.14,.03-2.65,.03-3.16,.04-2.14,.03-2.65,.03-2.65,.03-3.16,.04-2.14,.03-3.16,.04-2.14,.03-3.16,.04-2.14,.03-2.65,.03-2.65,.03-3.16,.04-2.14,.03-3.16,.04v.65l2.66-.02Z"/><path id="Path_6136" class="cls-4" d="M306.86,294.41l2.65-.03v-.65l-3.17,.04-2.14,.03-3.16,.04-2.14,.03-3.16,.04-2.14,.03-3.16,.04-2.65,.03-2.14,.03-2.65,.03-2.65,.03-3.16,.04-2.14,.03-2.65,.03-2.65,.03h-.51l-2.65,.03-2.14,.03-2.65,.03-2.65,.03-3.16,.04-2.14,.03-3.16,.04-2.14,.03-3.16,.04-2.14,.03-3.16,.04-2.14,.03-3.16,.04-2.32,.03-2.47,.03-2.65,.03-3.16,.04-2.14,.03-2.65,.03-2.65,.03-3.16,.04-2.14,.03-2.65,.03-3.16,.04-2.14,.03-3.16,.04-2.14,.03-3.16,.04-2.14,.03-3.16,.04-2.14,.03-3.16,.04-2.14,.03-2.65,.03-2.65,.03-3.16,.04-2.14,.03-2.65,.03-2.65,.03-3.16,.04-2.14,.03-2.65,.03h-.51l-2.14,.03-3.16,.04-2.32,.03-2.47,.03-2.65,.03-3.16,.04-2.65,.03-2.14,.03-2.65,.03-3.16,.04-2.14,.03-2.65,.03-3.16,.04-2.14,.03-2.65,.03-2.65,.03-3.16,.04-2.14,.03-2.65,.03-2.65,.03-3.16,.04-2.14,.03-2.65,.03-2.65,.03-3.16,.04-2.65,.03h0l-2.14,.03-3.16,.04-2.65,.03-2.65,.03-2.14,.03h-.51l-2.14,.03-3.16,.04-2.14,.03-2.65,.03-2.65,.03-3.16,.04-2.14,.03-2.65,.03-2.65,.03-3.16,.04-2.14,.03-3.16,.04v.65l2.66-.03,3.16-.04,2.14-.03,3.16-.04,2.14-.03,3.16-.04,2.14-.03,2.65-.03h.51l2.14-.03,3.16-.04,2.32-.03,2.47-.03,2.65-.03,3.16-.04,2.14-.03,2.65-.03,2.65-.03,3.16-.04,2.65-.03,2.14-.03,2.65-.03,3.16-.04,2.65-.03,2.14-.03,3.16-.04,2.65-.03,2.14-.03,2.65-.03,2.65-.03,3.16-.04,2.14-.03,2.65-.03,3.16-.04,2.14-.03,2.65-.03,3.16-.04,2.65-.03,2.65-.03,2.14-.03h.51l2.14-.03,3.16-.04,2.65-.03,2.14-.03,2.65-.03,3.16-.04,2.14-.03,2.65-.03,2.65-.03,3.16-.04,2.14-.03,2.65-.03,2.65-.03,3.16-.04,2.14-.03,2.65-.03,2.65-.03,3.16-.04,2.14-.03,2.65-.03,2.65-.03,3.16-.04,2.14-.03,2.65-.03,3.16-.04,2.14-.03,2.65-.03,3.16-.04,2.65-.03,2.14-.03,3.16-.04,2.14-.03,3.16-.04,2.14-.03,2.65-.03,2.65-.03,3.16-.04,2.14-.03,2.65-.03,2.65-.03,3.16-.04,2.14-.03h.51l2.14-.03,2.65-.03,3.16-.04,2.14-.03,2.65-.03,2.65-.03,2.65-.03,2.65-.03,2.65-.03,2.65-.03,2.65-.03,2.65-.03,2.65-.03,3.16-.04,2.14-.03,2.65-.03,3.16-.04,2.65-.03Z"/><g id="Group_405" class="cls-8"><g id="Group_404"><g class="cls-7"><g id="Group_403"><path id="Path_6137" class="cls-3" d="M112.74,12.58c-2.1-3.04-4.66-5.73-6.79-8.75-.94-1.19-1.75-2.47-2.42-3.83L0,71.88c2.31,1.73,4.39,5.76,5.67,7.53,4.04,5.6,8.08,11.21,11.9,16.97L120.82,24.69c-3.28-3.49-5.32-8.12-8.08-12.11"/></g></g></g></g></g></g></svg>