<?xml version="1.0" encoding="UTF-8"?><svg id="Layer_2" xmlns="http://www.w3.org/2000/svg" xmlns:xlink="http://www.w3.org/1999/xlink" viewBox="0 0 300.97 322.09"><defs><style>.cls-1{fill:none;}.cls-2{clip-path:url(#clippath);}.cls-3{fill:#fff;}.cls-4{fill:#b37b72;}.cls-5{fill:#cfd1d2;}.cls-6{fill:#d2e4f3;}.cls-7{clip-path:url(#clippath-1);}.cls-8{opacity:.8;}</style><clipPath id="clippath"><rect class="cls-1" x="4.63" y="25.75" width="296.33" height="296.34"/></clipPath><clipPath id="clippath-1"><rect class="cls-1" x="103.88" width="97.34" height="33.62"/></clipPath></defs><g id="Layer_1-2"><g><g id="Group_381"><g id="Group_380"><g class="cls-2"><g id="Group_379"><rect id="Rectangle_787" class="cls-5" x="6.36" y="27.47" width="292.9" height="292.9" transform="translate(-2.04 1.82) rotate(-.68)"/></g></g></g></g><rect id="Rectangle_789" class="cls-3" x="1.98" y="22.8" width="292.9" height="292.9" transform="translate(-1.99 1.77) rotate(-.68)"/><rect id="Rectangle_790" class="cls-6" x="294.74" y="21.06" width=".25" height="292.9" transform="translate(-2.02 3.61) rotate(-.7)"/><path id="Path_6057" class="cls-6" d="M296.85,314.08h-.5l-3.46-293.12h.5l3.46,293.12Zm-.25-.25l-.94-80,.94,80Z"/><rect id="Rectangle_791" class="cls-6" x="282" y="21.21" width=".25" height="292.9" transform="translate(-2.02 3.45) rotate(-.7)"/><path id="Path_6058" class="cls-6" d="M284.11,314.23h-.5l-3.46-293.13h.5l3.46,293.13Zm-.25-.25l-3.46-292.63,3.46,292.63Z"/><rect id="Rectangle_792" class="cls-6" x="269.27" y="21.37" width=".25" height="292.9" transform="translate(-2.03 3.3) rotate(-.7)"/><path id="Path_6059" class="cls-6" d="M271.38,314.38h-.5l-3.46-293.12h.5l3.46,293.12Zm-.25-.25l-3.46-292.63,3.46,292.63Z"/><rect id="Rectangle_793" class="cls-6" x="256.54" y="21.52" width=".25" height="292.9" transform="translate(-2.03 3.14) rotate(-.7)"/><path id="Path_6060" class="cls-6" d="M258.65,314.53h-.5l-3.46-293.13h.5l3.46,293.13Zm-.25-.25l-1.38-117.04,1.38,117.04Z"/><rect id="Rectangle_794" class="cls-6" x="243.8" y="21.67" width=".25" height="292.9" transform="translate(-2.03 2.99) rotate(-.7)"/><path id="Path_6061" class="cls-6" d="M245.91,314.68h-.5l-3.46-293.12h.5l3.46,293.12Zm-3.71-292.88l.94,80-.94-80Z"/><rect id="Rectangle_795" class="cls-6" x="231.07" y="21.82" width=".25" height="292.9" transform="translate(-2.04 2.83) rotate(-.7)"/><path id="Path_6062" class="cls-6" d="M233.18,314.83h-.5l-3.46-293.13h.5l3.46,293.13Zm-.25-.25l-3.46-292.63,3.46,292.63Z"/><rect id="Rectangle_796" class="cls-6" x="218.34" y="21.97" width=".25" height="292.9" transform="translate(-2.04 2.68) rotate(-.7)"/><path id="Path_6063" class="cls-6" d="M220.44,314.98h-.5l-3.46-293.12h.5l3.46,293.12Zm-.25-.25l-.93-78.72,.93,78.72Z"/><rect id="Rectangle_797" class="cls-6" x="205.6" y="22.12" width=".25" height="292.9" transform="translate(-2.04 2.52) rotate(-.7)"/><path id="Path_6064" class="cls-6" d="M207.71,315.13h-.5l-3.46-293.12h.5l3.46,293.12Zm-3.71-292.87l.94,80-.94-80Z"/><rect id="Rectangle_798" class="cls-6" x="192.87" y="22.27" width=".25" height="292.9" transform="translate(-2.04 2.37) rotate(-.7)"/><path id="Path_6065" class="cls-6" d="M194.98,315.28h-.5l-3.46-293.12h.5l3.46,293.12Zm-.25-.25l-3.46-292.63,3.46,292.63Z"/><rect id="Rectangle_799" class="cls-6" x="180.13" y="22.42" width=".25" height="292.9" transform="translate(-2.05 2.21) rotate(-.7)"/><path id="Path_6066" class="cls-6" d="M182.24,315.43h-.5l-3.46-293.12h.5l3.46,293.12Zm-.25-.25l-3.46-292.63,3.46,292.63Z"/><rect id="Rectangle_800" class="cls-6" x="167.4" y="22.57" width=".25" height="292.9" transform="translate(-2.05 2.06) rotate(-.7)"/><path id="Path_6067" class="cls-6" d="M169.51,315.58h-.5l-3.46-293.12h.5l3.46,293.12Zm-3.71-292.88l.93,78.72-.93-78.72Z"/><rect id="Rectangle_801" class="cls-6" x="154.67" y="22.72" width=".25" height="292.9" transform="translate(-2.05 1.9) rotate(-.7)"/><path id="Path_6068" class="cls-6" d="M156.77,315.73h-.5l-3.46-293.12h.5l3.46,293.12Zm-.25-.25l-3.46-292.63,3.46,292.63Z"/><rect id="Rectangle_802" class="cls-6" x="141.93" y="22.87" width=".25" height="292.9" transform="translate(-2.06 1.75) rotate(-.7)"/><path id="Path_6069" class="cls-6" d="M144.04,315.88h-.5l-3.46-293.12h.5l3.46,293.12Zm-.25-.25l-3.46-292.63,3.46,292.63Z"/><rect id="Rectangle_803" class="cls-6" x="129.2" y="23.02" width=".25" height="292.9" transform="translate(-2.06 1.59) rotate(-.7)"/><path id="Path_6070" class="cls-6" d="M131.31,316.03h-.5l-3.46-293.12h.5l3.46,293.12Zm-3.71-292.88l1.23,104.13-1.23-104.13Z"/><rect id="Rectangle_804" class="cls-6" x="116.47" y="23.17" width=".25" height="292.9" transform="translate(-2.06 1.43) rotate(-.7)"/><path id="Path_6071" class="cls-6" d="M118.57,316.18h-.5l-3.46-293.12h.5l3.46,293.12Zm-.25-.25l-1.23-104.14,1.23,104.14Z"/><rect id="Rectangle_805" class="cls-6" x="103.73" y="23.32" width=".25" height="292.9" transform="translate(-2.06 1.28) rotate(-.7)"/><path id="Path_6072" class="cls-6" d="M105.84,316.33h-.5l-3.46-293.12h.5l3.46,293.12Zm-.25-.25l-3.46-292.63,3.46,292.63Z"/><rect id="Rectangle_806" class="cls-6" x="91" y="23.47" width=".25" height="292.9" transform="translate(-2.07 1.12) rotate(-.7)"/><path id="Path_6073" class="cls-6" d="M93.11,316.48h-.5l-3.46-293.12h.5l3.46,293.12Zm-3.71-292.88l.95,80-.95-80Z"/><rect id="Rectangle_807" class="cls-6" x="78.26" y="23.62" width=".25" height="292.9" transform="translate(-2.07 .97) rotate(-.7)"/><path id="Path_6074" class="cls-6" d="M80.37,316.63h-.5l-3.46-293.12h.5l3.46,293.12Zm-.25-.25l-.93-78.72,.93,78.72Z"/><rect id="Rectangle_808" class="cls-6" x="65.53" y="23.77" width=".25" height="292.9" transform="translate(-2.07 .81) rotate(-.7)"/><path id="Path_6075" class="cls-6" d="M67.64,316.78h-.5L63.67,23.66h.5l3.46,293.12Zm-.25-.25L63.93,23.91l3.46,292.63Z"/><rect id="Rectangle_809" class="cls-6" x="52.8" y="23.92" width=".25" height="292.9" transform="translate(-2.07 .66) rotate(-.7)"/><path id="Path_6076" class="cls-6" d="M54.9,316.93h-.5L50.94,23.81h.5l3.46,293.12ZM51.19,24.06l1.24,104.83-1.24-104.83Z"/><rect id="Rectangle_810" class="cls-6" x="40.06" y="24.07" width=".25" height="292.9" transform="translate(-2.08 .5) rotate(-.7)"/><path id="Path_6077" class="cls-6" d="M42.17,317.08h-.5L38.21,23.96h.5l3.46,293.12Zm-.25-.25l-.95-80,.95,80Z"/><rect id="Rectangle_811" class="cls-6" x="27.33" y="24.22" width=".25" height="292.9" transform="translate(-2.08 .35) rotate(-.7)"/><path id="Path_6078" class="cls-6" d="M29.44,317.23h-.5L25.47,24.11h.5l3.46,293.12Zm-.25-.25L25.72,24.36l3.46,292.63Z"/><rect id="Rectangle_812" class="cls-6" x="14.59" y="24.37" width=".25" height="292.9" transform="translate(-2.08 .19) rotate(-.7)"/><path id="Path_6079" class="cls-6" d="M16.7,317.39h-.5L12.74,24.26h.5l3.46,293.12ZM12.99,24.51l.93,78.72-.93-78.72Z"/><rect id="Rectangle_813" class="cls-6" x="1.86" y="24.53" width=".25" height="292.9" transform="translate(-2.09 .04) rotate(-.7)"/><path id="Path_6080" class="cls-6" d="M3.97,317.54h-.5L0,24.41H.5L3.97,317.54Zm-.25-.25l-.95-80,.95,80Z"/><rect id="Rectangle_814" class="cls-6" x="3.71" y="315.56" width="292.9" height=".25" transform="translate(-3.72 1.8) rotate(-.68)"/><path id="Path_6081" class="cls-6" d="M296.72,314.2h-.12L3.6,317.66v-.5h.12l293-3.46v.5ZM3.84,317.41l38.92-.46-38.92,.46Z"/><rect id="Rectangle_815" class="cls-6" x="3.56" y="302.83" width="292.9" height=".25" transform="translate(-3.57 1.79) rotate(-.68)"/><path id="Path_6082" class="cls-6" d="M296.57,301.47L3.45,304.93v-.5h.12l293-3.46v.5ZM3.69,304.68l292.63-3.46h0L3.69,304.68Z"/><rect id="Rectangle_816" class="cls-6" x="3.41" y="290.09" width="292.9" height=".25" transform="translate(-3.42 1.79) rotate(-.68)"/><path id="Path_6083" class="cls-6" d="M296.42,288.73h-.12L3.3,292.2v-.5h.12l293-3.46v.5ZM3.54,291.95l292.63-3.46L3.54,291.95Z"/><rect id="Rectangle_817" class="cls-6" x="3.26" y="277.36" width="292.9" height=".25" transform="translate(-3.27 1.79) rotate(-.68)"/><path id="Path_6084" class="cls-6" d="M296.27,276h-.12L3.15,279.46v-.5h.12l293-3.46v.5ZM3.39,279.21l292.63-3.46L3.39,279.21Z"/><rect id="Rectangle_818" class="cls-6" x="3.11" y="264.62" width="292.9" height=".25" transform="translate(-3.12 1.79) rotate(-.68)"/><path id="Path_6085" class="cls-6" d="M296.12,263.27h-.12L3,266.73v-.5l293.12-3.46v.5ZM3.24,266.48l292.63-3.46L3.24,266.48Z"/><rect id="Rectangle_819" class="cls-6" x="2.95" y="251.89" width="292.9" height=".25" transform="translate(-2.97 1.78) rotate(-.68)"/><path id="Path_6086" class="cls-6" d="M295.97,250.53h-.12L2.85,254v-.5h.12l293-3.46v.5ZM3.09,253.74l292.63-3.46L3.09,253.74Z"/><rect id="Rectangle_820" class="cls-6" x="2.8" y="239.13" width="292.92" height=".25" transform="translate(-2.86 1.81) rotate(-.69)"/><path id="Path_6087" class="cls-6" d="M295.82,237.8h-.12L2.7,241.26v-.5h.12l293-3.46v.5ZM2.94,241.01l38.92-.46-38.92,.46Z"/><rect id="Rectangle_821" class="cls-6" x="2.65" y="226.42" width="292.9" height=".25" transform="translate(-2.67 1.78) rotate(-.68)"/><path id="Path_6088" class="cls-6" d="M295.67,225.07h-.12L2.54,228.53v-.5l293.12-3.46v.5Zm-40.52,.23l40.27-.48-40.27,.48Z"/><rect id="Rectangle_822" class="cls-6" x="2.5" y="213.69" width="292.9" height=".25" transform="translate(-2.52 1.77) rotate(-.68)"/><path id="Path_6089" class="cls-6" d="M295.52,212.33h-.12L2.4,215.79v-.5h.12l293-3.46v.5ZM2.64,215.54l292.63-3.46L2.64,215.54Z"/><rect id="Rectangle_823" class="cls-6" x="2.35" y="200.93" width="292.92" height=".25" transform="translate(-2.4 1.8) rotate(-.69)"/><path id="Path_6090" class="cls-6" d="M295.37,199.6L2.24,203.06v-.5h.12l293-3.46v.5ZM2.49,202.81l292.63-3.46L2.49,202.81Z"/><rect id="Rectangle_824" class="cls-6" x="2.2" y="188.22" width="292.9" height=".25" transform="translate(-2.22 1.77) rotate(-.68)"/><path id="Path_6091" class="cls-6" d="M295.22,186.86h-.12L2.09,190.33v-.5h.12l293-3.46v.5ZM2.34,190.07l292.63-3.46L2.34,190.07Z"/><rect id="Rectangle_825" class="cls-6" x="2.05" y="175.49" width="292.9" height=".25" transform="translate(-2.06 1.77) rotate(-.68)"/><path id="Path_6092" class="cls-6" d="M295.07,174.13h-.12L1.94,177.59v-.5h.12l293-3.46v.5ZM2.19,177.34l292.63-3.46L2.19,177.34Z"/><rect id="Rectangle_826" class="cls-6" x="1.9" y="162.75" width="292.9" height=".25" transform="translate(-1.91 1.76) rotate(-.68)"/><path id="Path_6093" class="cls-6" d="M294.92,161.4h-.12L1.79,164.86v-.5l293.12-3.46v.5ZM2.04,164.61l47.12-.56-47.12,.56Z"/><rect id="Rectangle_827" class="cls-6" x="1.75" y="150.02" width="292.9" height=".25" transform="translate(-1.76 1.76) rotate(-.68)"/><path id="Path_6094" class="cls-6" d="M294.77,148.66h-.12L1.64,152.12v-.5h.12l293-3.46v.5Zm-39.17,.21l38.92-.46-38.92,.46Z"/><rect id="Rectangle_828" class="cls-6" x="1.6" y="137.26" width="292.92" height=".25" transform="translate(-1.64 1.79) rotate(-.69)"/><path id="Path_6095" class="cls-6" d="M294.62,135.93h-.12L1.49,139.39v-.5h.12l293-3.46v.5ZM1.73,139.14l292.63-3.46L1.73,139.14Z"/><rect id="Rectangle_829" class="cls-6" x="1.45" y="124.55" width="292.9" height=".25" transform="translate(-1.46 1.76) rotate(-.68)"/><path id="Path_6096" class="cls-6" d="M294.47,123.19h-.12L1.34,126.66v-.5l293.12-3.46v.5ZM1.58,126.4l292.63-3.46L1.58,126.4Z"/><rect id="Rectangle_830" class="cls-6" x="1.3" y="111.82" width="292.9" height=".25" transform="translate(-1.31 1.75) rotate(-.68)"/><path id="Path_6097" class="cls-6" d="M294.32,110.46h-.12L1.19,113.92v-.5h.12l293-3.46v.5ZM1.43,113.67l292.63-3.46L1.43,113.67Z"/><rect id="Rectangle_831" class="cls-6" x="1.15" y="99.08" width="292.9" height=".25" transform="translate(-1.16 1.75) rotate(-.68)"/><path id="Path_6098" class="cls-6" d="M294.17,97.73h-.12L1.04,101.19v-.5h.12l293-3.46v.5ZM1.28,100.94l292.63-3.46L1.28,100.94Z"/><rect id="Rectangle_832" class="cls-6" x="1" y="86.35" width="292.9" height=".25" transform="translate(-1.01 1.75) rotate(-.68)"/><path id="Path_6099" class="cls-6" d="M294.02,84.99h-.12L.89,88.45v-.5h.12l293-3.46v.5ZM1.13,88.2l38.92-.46-38.92,.46h0Z"/><rect id="Rectangle_833" class="cls-6" x=".85" y="73.59" width="292.92" height=".25" transform="translate(-.87 1.77) rotate(-.69)"/><path id="Path_6100" class="cls-6" d="M293.86,72.26h-.12L.74,75.72v-.5h.12l293-3.46v.5Zm-39.17,.21l38.92-.46-38.92,.46Z"/><rect id="Rectangle_834" class="cls-6" x=".7" y="60.88" width="292.9" height=".25" transform="translate(-.71 1.74) rotate(-.68)"/><path id="Path_6101" class="cls-6" d="M293.71,59.53L.58,62.99v-.5l293.12-3.46v.5ZM.83,62.74l292.63-3.46L.83,62.74Z"/><rect id="Rectangle_835" class="cls-6" x=".55" y="48.15" width="292.9" height=".25" transform="translate(-.56 1.74) rotate(-.68)"/><path id="Path_6102" class="cls-6" d="M293.56,46.79h-.12L.44,50.25v-.5h.12l293-3.46v.5ZM.68,50l292.63-3.46L.68,50Z"/><rect id="Rectangle_836" class="cls-6" x=".4" y="35.39" width="292.92" height=".25" transform="translate(-.42 1.76) rotate(-.69)"/><path id="Path_6103" class="cls-6" d="M293.41,34.06h-.12L.29,37.52v-.5h.12l293-3.46v.5ZM.53,37.27l292.63-3.46L.53,37.27Z"/><g id="Group_384" class="cls-8"><g id="Group_383"><g class="cls-7"><g id="Group_382"><path id="Path_6105" class="cls-4" d="M200.91,15.56c-.14-3.69-.85-7.34-1.03-11.03-.16-1.51-.15-3.02,.02-4.53L103.88,3.52c1.02,2.7,.61,7.21,.74,9.4,.4,6.9,.79,13.8,.93,20.7l95.67-3.51c-.9-4.71-.12-9.7-.31-14.56"/></g></g></g></g></g></g></svg>