<?xml version="1.0" encoding="UTF-8"?><svg id="Layer_2" xmlns="http://www.w3.org/2000/svg" xmlns:xlink="http://www.w3.org/1999/xlink" viewBox="0 0 302.41 321.79"><defs><style>.cls-1{fill:none;}.cls-2{clip-path:url(#clippath);}.cls-3{fill:#ece5c9;}.cls-4{fill:#fdf7d6;}.cls-5{fill:#7396b4;}.cls-6{fill:#cfd1d2;}.cls-7{clip-path:url(#clippath-1);}.cls-8{opacity:.8;}</style><clipPath id="clippath"><rect class="cls-1" x="5.28" y="25.27" width="297.14" height="296.51"/></clipPath><clipPath id="clippath-1"><rect class="cls-1" x="103.24" width="148.52" height="31.18"/></clipPath></defs><g id="Layer_1-2"><g><g id="Group_396"><g id="Group_395"><g class="cls-2"><g id="Group_394"><path id="Path_6121" class="cls-6" d="M5.28,29.54l3.68,252.26,43.41,39.98,250.05-3.65-4.27-292.87L5.28,29.54Z"/></g></g></g></g><path id="Path_6122" class="cls-4" d="M292.87,20.57L0,24.84l3.68,252.26,43.41,39.98,250.05-3.65-4.27-292.87Z"/><path id="Path_6123" class="cls-3" d="M47.09,317.08L3.68,277.1l42.82-.62,.59,40.61Z"/><g id="Group_399" class="cls-8"><g id="Group_398"><g class="cls-7"><g id="Group_397"><path id="Path_6124" class="cls-5" d="M250.13,0L104.47,.95c-.29,2.24-.85,4.64-.92,5.84-.5,8.13-.39,16.28,.33,24.39l147.88-.97c-.39-6.73-.75-13.47-1-20.21-.11-3.03-.67-6.68-.63-10"/></g></g></g></g></g></g></svg>