<?xml version="1.0" encoding="UTF-8"?><svg id="Layer_2" xmlns="http://www.w3.org/2000/svg" xmlns:xlink="http://www.w3.org/1999/xlink" viewBox="0 0 340.57 339.83"><defs><style>.cls-1{fill:none;}.cls-2{clip-path:url(#clippath);}.cls-3{fill:#fefefa;}.cls-4{fill:#cfd1d2;}.cls-5{fill:#e1a19f;}.cls-6{clip-path:url(#clippath-1);}.cls-7{clip-path:url(#clippath-4);}.cls-8{clip-path:url(#clippath-3);}.cls-9{clip-path:url(#clippath-2);}.cls-10{opacity:.8;}</style><clipPath id="clippath"><rect class="cls-1" x="32.06" y="27.6" width="294.95" height="294.95"/></clipPath><clipPath id="clippath-1"><rect class="cls-1" x="247.99" width="92.58" height="84.93"/></clipPath><clipPath id="clippath-2"><rect class="cls-1" x="247.99" width="92.58" height="84.93"/></clipPath><clipPath id="clippath-3"><rect class="cls-1" y="254.9" width="92.59" height="84.93"/></clipPath><clipPath id="clippath-4"><rect class="cls-1" y="254.9" width="92.59" height="84.93"/></clipPath></defs><g id="Layer_1-2"><g><g id="Group_420"><g id="Group_419"><g class="cls-2"><g id="Group_418"><rect id="Rectangle_856" class="cls-4" x="33.08" y="28.63" width="292.91" height="292.91" transform="translate(-1.22 1.26) rotate(-.4)"/></g></g></g></g><rect id="Rectangle_858" class="cls-3" x="27.62" y="24.14" width="292.91" height="292.91" transform="translate(-1.19 1.22) rotate(-.4)"/><path id="Path_6142" class="cls-4" d="M51.09,60.42c-.47,.47-1.24,.47-1.71,0-.47-.47-.47-1.24,0-1.71,.47-.47,1.24-.47,1.71,0,.22,.22,.35,.53,.35,.84,0,.33-.12,.64-.36,.86"/><path id="Path_6143" class="cls-4" d="M66.54,60.32c-.47,.47-1.24,.47-1.71,0-.47-.47-.47-1.24,0-1.71s1.24-.47,1.71,0c.22,.22,.35,.53,.35,.84,0,.33-.12,.64-.36,.86"/><path id="Path_6144" class="cls-4" d="M81.99,60.21c-.47,.47-1.24,.47-1.71,0-.47-.47-.47-1.24,0-1.71s1.24-.47,1.71,0c.22,.22,.35,.53,.35,.84,0,.33-.12,.64-.36,.86"/><path id="Path_6145" class="cls-4" d="M97.43,60.1c-.47,.47-1.24,.47-1.71,0-.47-.47-.47-1.24,0-1.71s1.24-.47,1.71,0c.22,.22,.35,.53,.35,.84,0,.33-.12,.64-.36,.86"/><path id="Path_6146" class="cls-4" d="M112.88,59.99c-.47,.47-1.24,.47-1.71,0-.47-.47-.47-1.24,0-1.71s1.24-.47,1.71,0c.22,.22,.35,.53,.35,.84,0,.33-.12,.64-.36,.86"/><path id="Path_6147" class="cls-4" d="M128.33,59.89c-.47,.47-1.24,.47-1.71,0-.47-.47-.47-1.24,0-1.71s1.24-.47,1.71,0c.22,.22,.35,.53,.35,.84,0,.33-.12,.64-.36,.86"/><path id="Path_6148" class="cls-4" d="M143.78,59.77c-.47,.47-1.24,.47-1.71,0-.47-.47-.47-1.24,0-1.71,.47-.47,1.24-.47,1.71,0,.22,.22,.35,.53,.35,.84,0,.33-.12,.64-.36,.86"/><path id="Path_6149" class="cls-4" d="M159.23,59.66c-.47,.47-1.24,.47-1.71,0-.47-.47-.47-1.24,0-1.71s1.24-.47,1.71,0c.22,.22,.35,.53,.35,.84,0,.33-.12,.64-.36,.86"/><path id="Path_6150" class="cls-4" d="M174.68,59.56c-.47,.47-1.24,.47-1.71,0-.47-.47-.47-1.24,0-1.71,.47-.47,1.24-.47,1.71,0,.22,.22,.35,.53,.35,.84,0,.33-.12,.64-.36,.86"/><path id="Path_6151" class="cls-4" d="M190.13,59.45c-.47,.47-1.24,.47-1.71,0-.47-.47-.47-1.24,0-1.71s1.24-.47,1.71,0c.22,.22,.35,.53,.35,.84,0,.33-.12,.64-.36,.86"/><path id="Path_6152" class="cls-4" d="M205.58,59.34c-.47,.47-1.24,.47-1.71,0-.47-.47-.47-1.24,0-1.71,.47-.47,1.24-.47,1.71,0,.22,.22,.35,.53,.35,.84,0,.33-.12,.64-.36,.86"/><path id="Path_6153" class="cls-4" d="M221.03,59.23c-.47,.47-1.24,.47-1.71,0-.47-.47-.47-1.24,0-1.71s1.24-.47,1.71,0c.22,.22,.35,.53,.35,.84,0,.33-.12,.64-.36,.86"/><path id="Path_6154" class="cls-4" d="M236.48,59.12c-.47,.47-1.24,.47-1.71,0-.47-.47-.47-1.24,0-1.71,.47-.47,1.24-.47,1.71,0,.22,.22,.35,.53,.35,.84,0,.33-.12,.64-.36,.86"/><path id="Path_6155" class="cls-4" d="M251.93,59.01c-.47,.47-1.24,.47-1.71,0-.47-.47-.47-1.24,0-1.71s1.24-.47,1.71,0c.22,.22,.35,.53,.35,.84,0,.33-.12,.64-.36,.86"/><path id="Path_6156" class="cls-4" d="M267.38,58.91c-.47,.47-1.24,.47-1.71,0-.47-.47-.47-1.24,0-1.71,.47-.47,1.24-.47,1.71,0,.22,.22,.35,.53,.35,.84,0,.33-.12,.64-.36,.86"/><path id="Path_6157" class="cls-4" d="M282.83,58.8c-.47,.47-1.24,.47-1.71,0-.47-.47-.47-1.24,0-1.71,.47-.47,1.24-.47,1.71,0,.22,.22,.35,.53,.35,.84,0,.33-.12,.64-.36,.86"/><path id="Path_6158" class="cls-4" d="M298.27,58.69c-.47,.47-1.24,.47-1.71,0-.47-.47-.47-1.24,0-1.71,.47-.47,1.24-.47,1.71,0,.22,.22,.35,.53,.35,.84,0,.33-.12,.64-.36,.86"/><path id="Path_6159" class="cls-4" d="M51.26,85.42c-.47,.47-1.24,.47-1.71,0-.47-.47-.47-1.24,0-1.71s1.24-.47,1.71,0c.22,.22,.35,.53,.35,.84,0,.33-.12,.64-.36,.86"/><path id="Path_6160" class="cls-4" d="M66.71,85.31c-.47,.47-1.24,.47-1.71,0-.47-.47-.47-1.24,0-1.71s1.24-.47,1.71,0c.22,.22,.35,.53,.35,.84,0,.33-.12,.64-.36,.86"/><path id="Path_6161" class="cls-4" d="M82.16,85.21c-.47,.47-1.24,.47-1.71,0-.47-.47-.47-1.24,0-1.71s1.24-.47,1.71,0c.22,.22,.35,.53,.35,.84,0,.33-.12,.64-.36,.86"/><path id="Path_6162" class="cls-4" d="M97.61,85.1c-.47,.47-1.24,.47-1.71,0-.47-.47-.47-1.24,0-1.71s1.24-.47,1.71,0c.22,.22,.35,.53,.35,.84,0,.33-.12,.64-.36,.86"/><path id="Path_6163" class="cls-4" d="M113.06,84.99c-.47,.47-1.24,.47-1.71,0-.47-.47-.47-1.24,0-1.71s1.24-.47,1.71,0c.22,.22,.35,.53,.35,.84,0,.33-.12,.64-.36,.86"/><path id="Path_6164" class="cls-4" d="M128.51,84.89c-.47,.47-1.24,.47-1.71,0-.47-.47-.47-1.24,0-1.71s1.24-.47,1.71,0c.22,.22,.35,.53,.35,.84,0,.33-.12,.64-.36,.86"/><path id="Path_6165" class="cls-4" d="M143.96,84.77c-.47,.47-1.24,.47-1.71,0s-.47-1.24,0-1.71c.47-.47,1.24-.47,1.71,0,.22,.22,.35,.53,.35,.84,0,.33-.12,.64-.36,.86"/><path id="Path_6166" class="cls-4" d="M159.41,84.66c-.47,.47-1.24,.47-1.71,0-.47-.47-.47-1.24,0-1.71,.47-.47,1.24-.47,1.71,0,.22,.22,.35,.53,.35,.84,0,.33-.12,.64-.36,.86"/><path id="Path_6167" class="cls-4" d="M174.86,84.56c-.47,.47-1.24,.47-1.71,0-.47-.47-.47-1.24,0-1.71s1.24-.47,1.71,0c.22,.22,.35,.53,.35,.84,0,.33-.12,.64-.36,.86"/><path id="Path_6168" class="cls-4" d="M190.3,84.45c-.47,.47-1.24,.47-1.71,0-.47-.47-.47-1.24,0-1.71s1.24-.47,1.71,0c.22,.22,.35,.53,.35,.84,0,.33-.12,.64-.36,.86"/><path id="Path_6169" class="cls-4" d="M205.75,84.34c-.47,.47-1.24,.47-1.71,0-.47-.47-.47-1.24,0-1.71,.47-.47,1.24-.47,1.71,0,.22,.22,.35,.53,.35,.84,0,.33-.12,.64-.36,.86"/><path id="Path_6170" class="cls-4" d="M221.2,84.23c-.47,.47-1.24,.47-1.71,0-.47-.47-.47-1.24,0-1.71s1.24-.47,1.71,0c.22,.22,.35,.53,.35,.84,0,.33-.12,.64-.36,.86"/><path id="Path_6171" class="cls-4" d="M236.65,84.12c-.47,.47-1.24,.47-1.71,0-.47-.47-.47-1.24,0-1.71,.47-.47,1.24-.47,1.71,0,.22,.22,.35,.53,.35,.84,0,.33-.12,.64-.36,.86"/><path id="Path_6172" class="cls-4" d="M252.1,84.01c-.47,.47-1.24,.47-1.71,0-.47-.47-.47-1.24,0-1.71,.47-.47,1.24-.47,1.71,0,.22,.22,.35,.53,.35,.84,0,.33-.12,.64-.36,.86"/><path id="Path_6173" class="cls-4" d="M267.55,83.91c-.47,.47-1.24,.47-1.71,0-.47-.47-.47-1.24,0-1.71,.47-.47,1.24-.47,1.71,0,.22,.22,.35,.53,.35,.84,0,.33-.12,.64-.36,.86"/><path id="Path_6174" class="cls-4" d="M283,83.8c-.47,.47-1.24,.47-1.71,0-.47-.47-.47-1.24,0-1.71,.47-.47,1.24-.47,1.71,0,.22,.22,.35,.53,.35,.84,0,.33-.12,.64-.36,.86"/><path id="Path_6175" class="cls-4" d="M298.45,83.69c-.47,.47-1.24,.47-1.71,0-.47-.47-.47-1.24,0-1.71,.47-.47,1.24-.47,1.71,0,.22,.22,.35,.53,.35,.84,0,.33-.12,.64-.36,.86"/><path id="Path_6176" class="cls-4" d="M51.44,110.42c-.47,.47-1.24,.47-1.71,0-.47-.47-.47-1.24,0-1.71s1.24-.47,1.71,0c.22,.22,.35,.53,.35,.84,0,.33-.12,.64-.36,.86"/><path id="Path_6177" class="cls-4" d="M66.89,110.31c-.47,.47-1.24,.47-1.71,0-.47-.47-.47-1.24,0-1.71s1.24-.47,1.71,0c.22,.22,.35,.53,.35,.84,0,.33-.12,.64-.36,.86"/><path id="Path_6178" class="cls-4" d="M82.34,110.21c-.47,.47-1.24,.47-1.71,0-.47-.47-.47-1.24,0-1.71s1.24-.47,1.71,0c.22,.22,.35,.53,.35,.84,0,.33-.12,.64-.36,.86"/><path id="Path_6179" class="cls-4" d="M97.79,110.1c-.47,.47-1.24,.47-1.71,0-.47-.47-.47-1.24,0-1.71s1.24-.47,1.71,0c.22,.22,.35,.53,.35,.84,0,.33-.12,.64-.36,.86"/><path id="Path_6180" class="cls-4" d="M113.23,109.99c-.47,.47-1.24,.47-1.71,0-.47-.47-.47-1.24,0-1.71s1.24-.47,1.71,0c.22,.22,.35,.53,.35,.84,0,.33-.12,.64-.36,.86"/><path id="Path_6181" class="cls-4" d="M128.68,109.89c-.47,.47-1.24,.47-1.71,0-.47-.47-.47-1.24,0-1.71s1.24-.47,1.71,0c.22,.22,.35,.53,.35,.84,0,.33-.12,.64-.36,.86"/><path id="Path_6182" class="cls-4" d="M144.13,109.77c-.47,.47-1.24,.47-1.71,0-.47-.47-.47-1.24,0-1.71s1.24-.47,1.71,0c.22,.22,.35,.53,.35,.84,0,.33-.12,.64-.36,.86"/><path id="Path_6183" class="cls-4" d="M159.58,109.66c-.47,.47-1.24,.47-1.71,0-.47-.47-.47-1.24,0-1.71,.47-.47,1.24-.47,1.71,0,.22,.22,.35,.53,.35,.84,0,.33-.12,.64-.36,.86"/><path id="Path_6184" class="cls-4" d="M175.03,109.56c-.47,.47-1.24,.47-1.71,0-.47-.47-.47-1.24,0-1.71s1.24-.47,1.71,0c.22,.22,.35,.53,.35,.84,0,.33-.12,.64-.36,.86"/><path id="Path_6185" class="cls-4" d="M190.48,109.45c-.47,.47-1.24,.47-1.71,0-.47-.47-.47-1.24,0-1.71s1.24-.47,1.71,0c.22,.22,.35,.53,.35,.84,0,.33-.12,.64-.36,.86"/><path id="Path_6186" class="cls-4" d="M205.93,109.34c-.47,.47-1.24,.47-1.71,0-.47-.47-.47-1.24,0-1.71,.47-.47,1.24-.47,1.71,0,.22,.22,.35,.53,.35,.84,0,.33-.12,.64-.36,.86"/><path id="Path_6187" class="cls-4" d="M221.38,109.23c-.47,.47-1.24,.47-1.71,0-.47-.47-.47-1.24,0-1.71,.47-.47,1.24-.47,1.71,0,.22,.22,.35,.53,.35,.84,0,.33-.12,.64-.36,.86"/><path id="Path_6188" class="cls-4" d="M236.83,109.12c-.47,.47-1.24,.47-1.71,0-.47-.47-.47-1.24,0-1.71s1.24-.47,1.71,0c.22,.22,.35,.53,.35,.84,0,.33-.12,.64-.36,.86"/><path id="Path_6189" class="cls-4" d="M252.28,109.01c-.47,.47-1.24,.47-1.71,0-.47-.47-.47-1.24,0-1.71,.47-.47,1.24-.47,1.71,0,.22,.22,.35,.53,.35,.84,0,.33-.12,.64-.36,.86"/><path id="Path_6190" class="cls-4" d="M267.73,108.91c-.47,.47-1.24,.47-1.71,0-.47-.47-.47-1.24,0-1.71,.47-.47,1.24-.47,1.71,0,.22,.22,.35,.53,.35,.84,0,.33-.12,.64-.36,.86"/><path id="Path_6191" class="cls-4" d="M283.18,108.8c-.47,.47-1.24,.47-1.71,0-.47-.47-.47-1.24,0-1.71,.47-.47,1.24-.47,1.71,0,.22,.22,.35,.53,.35,.84,0,.33-.12,.64-.36,.86"/><path id="Path_6192" class="cls-4" d="M298.63,108.69c-.47,.47-1.24,.47-1.71,0-.47-.47-.47-1.24,0-1.71,.47-.47,1.24-.47,1.71,0,.22,.22,.35,.53,.35,.84,0,.33-.12,.64-.36,.86"/><path id="Path_6193" class="cls-4" d="M51.61,135.42c-.47,.47-1.24,.47-1.71,0-.47-.47-.47-1.24,0-1.71s1.24-.47,1.71,0c.22,.22,.35,.53,.35,.84,0,.33-.12,.64-.36,.86"/><path id="Path_6194" class="cls-4" d="M67.06,135.31c-.47,.47-1.24,.47-1.71,0-.47-.47-.47-1.24,0-1.71s1.24-.47,1.71,0c.22,.22,.35,.53,.35,.84,0,.33-.12,.64-.36,.86"/><path id="Path_6195" class="cls-4" d="M82.51,135.2c-.47,.47-1.24,.47-1.71,0-.47-.47-.47-1.24,0-1.71s1.24-.47,1.71,0c.22,.22,.35,.53,.35,.84,0,.33-.12,.64-.36,.86"/><path id="Path_6196" class="cls-4" d="M97.96,135.1c-.47,.47-1.24,.47-1.71,0-.47-.47-.47-1.24,0-1.71s1.24-.47,1.71,0c.22,.22,.35,.53,.35,.84,0,.33-.12,.64-.36,.86"/><path id="Path_6197" class="cls-4" d="M113.41,134.99c-.47,.47-1.24,.47-1.71,0-.47-.47-.47-1.24,0-1.71s1.24-.47,1.71,0c.22,.22,.35,.53,.35,.84,0,.33-.12,.64-.36,.86"/><path id="Path_6198" class="cls-4" d="M128.86,134.88c-.47,.47-1.24,.47-1.71,0-.47-.47-.47-1.24,0-1.71s1.24-.47,1.71,0c.22,.22,.35,.53,.35,.84,0,.33-.12,.64-.36,.86"/><path id="Path_6199" class="cls-4" d="M144.31,134.77c-.47,.47-1.24,.47-1.71,0-.47-.47-.47-1.24,0-1.71s1.24-.47,1.71,0c.22,.22,.35,.53,.35,.84,0,.33-.12,.64-.36,.86"/><path id="Path_6200" class="cls-4" d="M159.76,134.66c-.47,.47-1.24,.47-1.71,0-.47-.47-.47-1.24,0-1.71,.47-.47,1.24-.47,1.71,0,.22,.22,.35,.53,.35,.84,0,.33-.12,.64-.36,.86"/><path id="Path_6201" class="cls-4" d="M175.21,134.55c-.47,.47-1.24,.47-1.71,0-.47-.47-.47-1.24,0-1.71,.47-.47,1.24-.47,1.71,0,.22,.22,.35,.53,.35,.84,0,.33-.12,.64-.36,.86"/><path id="Path_6202" class="cls-4" d="M190.66,134.45c-.47,.47-1.24,.47-1.71,0-.47-.47-.47-1.24,0-1.71,.47-.47,1.24-.47,1.71,0,.22,.22,.35,.53,.35,.84,0,.33-.12,.64-.36,.86"/><path id="Path_6203" class="cls-4" d="M206.1,134.34c-.47,.47-1.24,.47-1.71,0-.47-.47-.47-1.24,0-1.71s1.24-.47,1.71,0c.22,.22,.35,.53,.35,.84,0,.33-.12,.64-.36,.86"/><path id="Path_6204" class="cls-4" d="M221.55,134.23c-.47,.47-1.24,.47-1.71,0-.47-.47-.47-1.24,0-1.71,.47-.47,1.24-.47,1.71,0,.22,.22,.35,.53,.35,.84,0,.33-.12,.64-.36,.86"/><path id="Path_6205" class="cls-4" d="M237,134.12c-.47,.47-1.24,.47-1.71,0-.47-.47-.47-1.24,0-1.71s1.24-.47,1.71,0c.22,.22,.35,.53,.35,.84,0,.33-.12,.64-.36,.86"/><path id="Path_6206" class="cls-4" d="M252.45,134.01c-.47,.47-1.24,.47-1.71,0-.47-.47-.47-1.24,0-1.71,.47-.47,1.24-.47,1.71,0,.22,.22,.35,.53,.35,.84,0,.33-.12,.64-.36,.86"/><path id="Path_6207" class="cls-4" d="M267.9,133.9c-.47,.47-1.24,.47-1.71,0-.47-.47-.47-1.24,0-1.71,.47-.47,1.24-.47,1.71,0,.22,.22,.35,.53,.35,.84,0,.33-.12,.64-.36,.86"/><path id="Path_6208" class="cls-4" d="M283.35,133.8c-.47,.47-1.24,.47-1.71,0-.47-.47-.47-1.24,0-1.71,.47-.47,1.24-.47,1.71,0,.22,.22,.35,.53,.35,.84,0,.33-.12,.64-.36,.86"/><path id="Path_6209" class="cls-4" d="M298.8,133.69c-.47,.47-1.24,.47-1.71,0-.47-.47-.47-1.24,0-1.71,.47-.47,1.24-.47,1.71,0,.22,.22,.35,.53,.35,.84,0,.33-.12,.64-.36,.86"/><path id="Path_6210" class="cls-4" d="M51.79,160.42c-.47,.47-1.24,.47-1.71,0-.47-.47-.47-1.24,0-1.71s1.24-.47,1.71,0c.22,.22,.35,.53,.35,.84,0,.33-.12,.64-.36,.86"/><path id="Path_6211" class="cls-4" d="M67.24,160.31c-.47,.47-1.24,.47-1.71,0-.47-.47-.47-1.24,0-1.71s1.24-.47,1.71,0c.22,.22,.35,.53,.35,.84,0,.33-.12,.64-.36,.86"/><path id="Path_6212" class="cls-4" d="M82.69,160.2c-.47,.47-1.24,.47-1.71,0-.47-.47-.47-1.24,0-1.71s1.24-.47,1.71,0c.22,.22,.35,.53,.35,.84,0,.33-.12,.64-.36,.86"/><path id="Path_6213" class="cls-4" d="M98.14,160.1c-.47,.47-1.24,.47-1.71,0-.47-.47-.47-1.24,0-1.71s1.24-.47,1.71,0c.22,.22,.35,.53,.35,.84,0,.33-.12,.64-.36,.86"/><path id="Path_6214" class="cls-4" d="M113.58,159.99c-.47,.47-1.24,.47-1.71,0-.47-.47-.47-1.24,0-1.71s1.24-.47,1.71,0c.22,.22,.35,.53,.35,.84,0,.33-.12,.64-.36,.86"/><path id="Path_6215" class="cls-4" d="M129.03,159.88c-.47,.47-1.24,.47-1.71,0-.47-.47-.47-1.24,0-1.71s1.24-.47,1.71,0c.22,.22,.35,.53,.35,.84,0,.33-.12,.64-.36,.86"/><path id="Path_6216" class="cls-4" d="M144.48,159.77c-.47,.47-1.24,.47-1.71,0-.47-.47-.47-1.24,0-1.71,.47-.47,1.24-.47,1.71,0,.22,.22,.35,.53,.35,.84,0,.33-.12,.64-.36,.86"/><path id="Path_6217" class="cls-4" d="M159.93,159.66c-.47,.47-1.24,.47-1.71,0-.47-.47-.47-1.24,0-1.71s1.24-.47,1.71,0c.22,.22,.35,.53,.35,.84,0,.33-.12,.64-.36,.86"/><path id="Path_6218" class="cls-4" d="M175.38,159.55c-.47,.47-1.24,.47-1.71,0-.47-.47-.47-1.24,0-1.71,.47-.47,1.24-.47,1.71,0,.22,.22,.35,.53,.35,.84,0,.33-.12,.64-.36,.86"/><path id="Path_6219" class="cls-4" d="M190.83,159.45c-.47,.47-1.24,.47-1.71,0-.47-.47-.47-1.24,0-1.71,.47-.47,1.24-.47,1.71,0,.22,.22,.35,.53,.35,.84,0,.33-.12,.64-.36,.86"/><path id="Path_6220" class="cls-4" d="M206.28,159.34c-.47,.47-1.24,.47-1.71,0-.47-.47-.47-1.24,0-1.71s1.24-.47,1.71,0c.22,.22,.35,.53,.35,.84,0,.33-.12,.64-.36,.86"/><path id="Path_6221" class="cls-4" d="M221.73,159.23c-.47,.47-1.24,.47-1.71,0-.47-.47-.47-1.24,0-1.71s1.24-.47,1.71,0c.22,.22,.35,.53,.35,.84,0,.33-.12,.64-.36,.86"/><path id="Path_6222" class="cls-4" d="M237.18,159.12c-.47,.47-1.24,.47-1.71,0-.47-.47-.47-1.24,0-1.71,.47-.47,1.24-.47,1.71,0,.22,.22,.35,.53,.35,.84,0,.33-.12,.64-.36,.86"/><path id="Path_6223" class="cls-4" d="M252.63,159.01c-.47,.47-1.24,.47-1.71,0-.47-.47-.47-1.24,0-1.71s1.24-.47,1.71,0c.22,.22,.35,.53,.35,.84,0,.33-.12,.64-.36,.86"/><path id="Path_6224" class="cls-4" d="M268.08,158.9c-.47,.47-1.24,.47-1.71,0-.47-.47-.47-1.24,0-1.71,.47-.47,1.24-.47,1.71,0,.22,.22,.35,.53,.35,.84,0,.33-.12,.64-.36,.86"/><path id="Path_6225" class="cls-4" d="M283.53,158.8c-.47,.47-1.24,.47-1.71,0-.47-.47-.47-1.24,0-1.71,.47-.47,1.24-.47,1.71,0,.22,.22,.35,.53,.35,.84,0,.33-.12,.64-.36,.86"/><path id="Path_6226" class="cls-4" d="M298.98,158.69c-.47,.47-1.24,.47-1.71,0-.47-.47-.47-1.24,0-1.71,.47-.47,1.24-.47,1.71,0,.22,.22,.35,.53,.35,.84,0,.33-.12,.64-.36,.86"/><path id="Path_6227" class="cls-4" d="M51.96,185.42c-.47,.47-1.24,.47-1.71,0-.47-.47-.47-1.24,0-1.71,.47-.47,1.24-.47,1.71,0,.22,.22,.35,.53,.35,.84,0,.33-.12,.64-.36,.86"/><path id="Path_6228" class="cls-4" d="M67.41,185.31c-.47,.47-1.24,.47-1.71,0-.47-.47-.47-1.24,0-1.71s1.24-.47,1.71,0c.22,.22,.35,.53,.35,.84,0,.33-.12,.64-.36,.86"/><path id="Path_6229" class="cls-4" d="M82.86,185.2c-.47,.47-1.24,.47-1.71,0-.47-.47-.47-1.24,0-1.71s1.24-.47,1.71,0c.22,.22,.35,.53,.35,.84,0,.33-.12,.64-.36,.86"/><path id="Path_6230" class="cls-4" d="M98.31,185.09c-.47,.47-1.24,.47-1.71,0-.47-.47-.47-1.24,0-1.71,.47-.47,1.24-.47,1.71,0,.22,.22,.35,.53,.35,.85,0,.33-.12,.64-.36,.86"/><path id="Path_6231" class="cls-4" d="M113.76,184.99c-.47,.47-1.24,.47-1.71,0-.47-.47-.47-1.24,0-1.71s1.24-.47,1.71,0c.22,.22,.35,.53,.35,.84,0,.33-.12,.64-.36,.86"/><path id="Path_6232" class="cls-4" d="M129.21,184.88c-.47,.47-1.24,.47-1.71,0-.47-.47-.47-1.24,0-1.71s1.24-.47,1.71,0c.22,.22,.35,.53,.35,.84,0,.33-.12,.64-.36,.86"/><path id="Path_6233" class="cls-4" d="M144.66,184.77c-.47,.47-1.24,.47-1.71,0-.47-.47-.47-1.24,0-1.71,.47-.47,1.24-.47,1.71,0,.22,.22,.35,.53,.35,.84,0,.33-.12,.64-.36,.86"/><path id="Path_6234" class="cls-4" d="M160.11,184.66c-.47,.47-1.24,.47-1.71,0-.47-.47-.47-1.24,0-1.71s1.24-.47,1.71,0c.22,.22,.35,.53,.35,.84,0,.33-.12,.64-.36,.86"/><path id="Path_6235" class="cls-4" d="M175.56,184.55c-.47,.47-1.24,.47-1.71,0-.47-.47-.47-1.24,0-1.71,.47-.47,1.24-.47,1.71,0,.22,.22,.35,.53,.35,.84,0,.33-.12,.64-.36,.86"/><path id="Path_6236" class="cls-4" d="M191.01,184.45c-.47,.47-1.24,.47-1.71,0-.47-.47-.47-1.24,0-1.71,.47-.47,1.24-.47,1.71,0,.22,.22,.35,.53,.35,.84,0,.33-.12,.64-.36,.86"/><path id="Path_6237" class="cls-4" d="M206.46,184.34c-.47,.47-1.24,.47-1.71,0-.47-.47-.47-1.24,0-1.71,.47-.47,1.24-.47,1.71,0,.22,.22,.35,.53,.35,.84,0,.33-.12,.64-.36,.86"/><path id="Path_6238" class="cls-4" d="M221.9,184.23c-.47,.47-1.24,.47-1.71,0-.47-.47-.47-1.24,0-1.71s1.24-.47,1.71,0c.22,.22,.35,.53,.35,.84,0,.33-.12,.64-.36,.86"/><path id="Path_6239" class="cls-4" d="M237.35,184.12c-.47,.47-1.24,.47-1.71,0-.47-.47-.47-1.24,0-1.71,.47-.47,1.24-.47,1.71,0,.22,.22,.35,.53,.35,.84,0,.33-.12,.64-.36,.86"/><path id="Path_6240" class="cls-4" d="M252.8,184.01c-.47,.47-1.24,.47-1.71,0-.47-.47-.47-1.24,0-1.71s1.24-.47,1.71,0c.22,.22,.35,.53,.35,.84,0,.33-.12,.64-.36,.86"/><path id="Path_6241" class="cls-4" d="M268.25,183.9c-.47,.47-1.24,.47-1.71,0-.47-.47-.47-1.24,0-1.71,.47-.47,1.24-.47,1.71,0,.22,.22,.35,.53,.35,.84,0,.33-.12,.64-.36,.86"/><path id="Path_6242" class="cls-4" d="M283.7,183.8c-.47,.47-1.24,.47-1.71,0-.47-.47-.47-1.24,0-1.71,.47-.47,1.24-.47,1.71,0,.22,.22,.35,.53,.35,.84,0,.33-.12,.64-.36,.86"/><path id="Path_6243" class="cls-4" d="M299.15,183.69c-.47,.47-1.24,.47-1.71,0-.47-.47-.47-1.24,0-1.71,.47-.47,1.24-.47,1.71,0,.22,.22,.35,.53,.35,.84,0,.33-.12,.64-.36,.86"/><path id="Path_6244" class="cls-4" d="M52.14,210.42c-.47,.47-1.24,.47-1.71,0-.47-.47-.47-1.24,0-1.71,.47-.47,1.24-.47,1.71,0,.22,.22,.35,.53,.35,.84,0,.33-.12,.64-.36,.86"/><path id="Path_6245" class="cls-4" d="M67.59,210.31c-.47,.47-1.24,.47-1.71,0-.47-.47-.47-1.24,0-1.71s1.24-.47,1.71,0c.22,.22,.35,.53,.35,.84,0,.33-.12,.64-.36,.86"/><path id="Path_6246" class="cls-4" d="M83.04,210.2c-.47,.47-1.24,.47-1.71,0-.47-.47-.47-1.24,0-1.71s1.24-.47,1.71,0c.22,.22,.35,.53,.35,.84,0,.33-.12,.64-.36,.86"/><path id="Path_6247" class="cls-4" d="M98.49,210.09c-.47,.47-1.24,.47-1.71,0-.47-.47-.47-1.24,0-1.71s1.24-.47,1.71,0c.22,.22,.35,.53,.35,.84,0,.33-.12,.64-.36,.86"/><path id="Path_6248" class="cls-4" d="M113.93,209.99c-.47,.47-1.24,.47-1.71,0-.47-.47-.47-1.24,0-1.71s1.24-.47,1.71,0c.22,.22,.35,.53,.35,.84,0,.33-.12,.64-.36,.86"/><path id="Path_6249" class="cls-4" d="M129.38,209.88c-.47,.47-1.24,.46-1.7,0-.47-.47-.46-1.24,0-1.7s1.24-.46,1.7,0c.22,.22,.35,.52,.35,.84,0,.33-.12,.64-.36,.86"/><path id="Path_6250" class="cls-4" d="M144.83,209.77c-.47,.47-1.24,.47-1.71,0-.47-.47-.47-1.24,0-1.71,.47-.47,1.24-.47,1.71,0,.22,.22,.35,.53,.35,.84,0,.33-.12,.64-.36,.86"/><path id="Path_6251" class="cls-4" d="M160.28,209.66c-.47,.47-1.24,.47-1.71,0-.47-.47-.47-1.24,0-1.71,.47-.47,1.24-.47,1.71,0,.22,.22,.35,.53,.35,.84,0,.33-.12,.64-.36,.86"/><path id="Path_6252" class="cls-4" d="M175.73,209.55c-.47,.47-1.24,.47-1.71,0-.47-.47-.47-1.24,0-1.71s1.24-.47,1.71,0c.22,.22,.35,.53,.35,.84,0,.33-.12,.64-.36,.86"/><path id="Path_6253" class="cls-4" d="M191.18,209.44c-.47,.47-1.24,.47-1.71,0-.47-.47-.47-1.24,0-1.71s1.24-.47,1.71,0c.22,.22,.35,.53,.35,.84,0,.33-.12,.64-.36,.86"/><path id="Path_6254" class="cls-4" d="M206.63,209.34c-.47,.47-1.24,.47-1.71,0-.47-.47-.47-1.24,0-1.71,.47-.47,1.24-.47,1.71,0,.22,.22,.35,.53,.35,.84,0,.33-.12,.64-.36,.86"/><path id="Path_6255" class="cls-4" d="M222.08,209.23c-.47,.47-1.24,.47-1.71,0-.47-.47-.47-1.24,0-1.71s1.24-.47,1.71,0c.22,.22,.35,.53,.35,.84,0,.33-.12,.64-.36,.86"/><path id="Path_6256" class="cls-4" d="M237.53,209.12c-.47,.47-1.24,.47-1.71,0-.47-.47-.47-1.24,0-1.71,.47-.47,1.24-.47,1.71,0,.22,.22,.35,.53,.35,.84,0,.33-.12,.64-.36,.86"/><path id="Path_6257" class="cls-4" d="M252.98,209.01c-.47,.47-1.24,.47-1.71,0-.47-.47-.47-1.24,0-1.71,.47-.47,1.24-.47,1.71,0,.22,.22,.35,.53,.35,.84,0,.33-.12,.64-.36,.86"/><path id="Path_6258" class="cls-4" d="M268.43,208.9c-.47,.47-1.24,.47-1.71,0-.47-.47-.47-1.24,0-1.71,.47-.47,1.24-.47,1.71,0,.22,.22,.35,.53,.35,.84,0,.33-.12,.64-.36,.86"/><path id="Path_6259" class="cls-4" d="M283.88,208.79c-.47,.47-1.24,.47-1.71,0-.47-.47-.47-1.24,0-1.71,.47-.47,1.24-.47,1.71,0,.22,.22,.35,.53,.35,.84,0,.33-.12,.64-.36,.86"/><path id="Path_6260" class="cls-4" d="M299.33,208.69c-.47,.47-1.24,.46-1.7,0s-.46-1.24,0-1.7c.47-.47,1.24-.46,1.7,0,.22,.22,.35,.52,.35,.84,0,.33-.12,.64-.36,.86"/><path id="Path_6261" class="cls-4" d="M52.31,235.42c-.47,.47-1.24,.47-1.71,0-.47-.47-.47-1.24,0-1.71s1.24-.47,1.71,0c.22,.22,.35,.53,.35,.84,0,.33-.12,.64-.36,.86"/><path id="Path_6262" class="cls-4" d="M67.76,235.31c-.47,.47-1.24,.47-1.71,0-.47-.47-.47-1.24,0-1.71s1.24-.47,1.71,0c.22,.22,.35,.53,.35,.84,0,.33-.12,.64-.36,.86"/><path id="Path_6263" class="cls-4" d="M83.21,235.2c-.47,.47-1.24,.47-1.71,0-.47-.47-.47-1.24,0-1.71s1.24-.47,1.71,0c.22,.22,.35,.53,.35,.84,0,.33-.12,.64-.36,.86"/><path id="Path_6264" class="cls-4" d="M98.66,235.09c-.47,.47-1.24,.47-1.71,0-.47-.47-.47-1.24,0-1.71s1.24-.47,1.71,0c.22,.22,.35,.53,.35,.84,0,.33-.12,.64-.36,.86"/><path id="Path_6265" class="cls-4" d="M114.11,234.99c-.47,.47-1.24,.47-1.71,0-.47-.47-.47-1.24,0-1.71s1.24-.47,1.71,0c.22,.22,.35,.53,.35,.84,0,.33-.12,.64-.36,.86"/><path id="Path_6266" class="cls-4" d="M129.56,234.88c-.47,.47-1.24,.47-1.71,0-.47-.47-.47-1.24,0-1.71s1.24-.47,1.71,0c.22,.22,.35,.53,.35,.84,0,.33-.12,.64-.36,.86"/><path id="Path_6267" class="cls-4" d="M145.01,234.77c-.47,.47-1.24,.47-1.71,0-.47-.47-.47-1.24,0-1.71s1.24-.47,1.71,0c.22,.22,.35,.53,.35,.84,0,.33-.12,.64-.36,.86"/><path id="Path_6268" class="cls-4" d="M160.46,234.66c-.47,.47-1.24,.47-1.71,0-.47-.47-.47-1.24,0-1.71,.47-.47,1.24-.47,1.71,0,.22,.22,.35,.53,.35,.84,0,.33-.12,.64-.36,.86"/><path id="Path_6269" class="cls-4" d="M175.91,234.55c-.47,.47-1.24,.47-1.71,0-.47-.47-.47-1.24,0-1.71s1.24-.47,1.71,0c.22,.22,.35,.53,.35,.84,0,.33-.12,.64-.36,.86"/><path id="Path_6270" class="cls-4" d="M191.36,234.44c-.47,.47-1.23,.46-1.7-.01s-.46-1.23,.01-1.7c.47-.47,1.23-.46,1.7,.01,.22,.22,.34,.52,.35,.83,0,.33-.12,.64-.36,.86"/><path id="Path_6271" class="cls-4" d="M206.81,234.34c-.47,.47-1.24,.47-1.71,0-.47-.47-.47-1.24,0-1.71,.47-.47,1.24-.47,1.71,0,.22,.22,.35,.53,.35,.84,0,.33-.12,.64-.36,.86"/><path id="Path_6272" class="cls-4" d="M222.26,234.23c-.47,.47-1.24,.47-1.71,0-.47-.47-.47-1.24,0-1.71,.47-.47,1.24-.47,1.71,0,.22,.22,.35,.53,.35,.84,0,.33-.12,.64-.36,.86"/><path id="Path_6273" class="cls-4" d="M237.71,234.12c-.47,.47-1.24,.47-1.71,0-.47-.47-.47-1.24,0-1.71s1.24-.47,1.71,0c.22,.22,.35,.53,.35,.84,0,.33-.12,.64-.36,.86"/><path id="Path_6274" class="cls-4" d="M253.15,234.01c-.47,.47-1.24,.47-1.71,0-.47-.47-.47-1.24,0-1.71,.47-.47,1.24-.47,1.71,0,.22,.22,.35,.53,.35,.84,0,.33-.12,.64-.36,.86"/><path id="Path_6275" class="cls-4" d="M268.6,233.9c-.47,.47-1.24,.47-1.71,0-.47-.47-.47-1.24,0-1.71,.47-.47,1.24-.47,1.71,0,.22,.22,.35,.53,.35,.84,0,.33-.12,.64-.36,.86"/><path id="Path_6276" class="cls-4" d="M284.05,233.79c-.47,.47-1.24,.47-1.71,0-.47-.47-.47-1.24,0-1.71,.47-.47,1.24-.47,1.71,0,.22,.22,.35,.53,.35,.84,0,.33-.12,.64-.36,.86"/><path id="Path_6277" class="cls-4" d="M299.5,233.69c-.47,.47-1.24,.47-1.71,0-.47-.47-.47-1.24,0-1.71,.47-.47,1.24-.47,1.71,0,.22,.22,.35,.53,.35,.84,0,.33-.12,.64-.36,.86"/><path id="Path_6278" class="cls-4" d="M52.49,260.42c-.47,.47-1.24,.47-1.71,0-.47-.47-.47-1.24,0-1.71s1.24-.47,1.71,0c.22,.22,.35,.53,.35,.84,0,.33-.12,.64-.36,.86"/><path id="Path_6279" class="cls-4" d="M67.94,260.31c-.47,.47-1.24,.47-1.71,0-.47-.47-.47-1.24,0-1.71s1.24-.47,1.71,0c.22,.22,.35,.53,.35,.84,0,.33-.12,.64-.36,.86"/><path id="Path_6280" class="cls-4" d="M83.39,260.2c-.47,.47-1.24,.47-1.71,0-.47-.47-.47-1.24,0-1.71s1.24-.47,1.71,0c.22,.22,.35,.53,.35,.84,0,.33-.12,.64-.36,.86"/><path id="Path_6281" class="cls-4" d="M98.84,260.09c-.47,.47-1.24,.47-1.71,0-.47-.47-.47-1.24,0-1.71s1.24-.47,1.71,0c.22,.22,.35,.53,.35,.84,0,.33-.12,.64-.36,.86"/><path id="Path_6282" class="cls-4" d="M114.29,259.99c-.47,.47-1.24,.47-1.71,0-.47-.47-.47-1.24,0-1.71s1.24-.47,1.71,0c.22,.22,.35,.53,.35,.84,0,.33-.12,.64-.36,.86"/><path id="Path_6283" class="cls-4" d="M129.74,259.88c-.47,.47-1.24,.47-1.71,0-.47-.47-.47-1.24,0-1.71,.47-.47,1.24-.47,1.71,0,.22,.22,.35,.53,.35,.84,0,.33-.12,.64-.36,.86"/><path id="Path_6284" class="cls-4" d="M145.18,259.77c-.47,.47-1.24,.47-1.71,0-.47-.47-.47-1.24,0-1.71s1.24-.47,1.71,0c.22,.22,.35,.53,.35,.84,0,.33-.12,.64-.36,.86"/><path id="Path_6285" class="cls-4" d="M160.63,259.66c-.47,.47-1.24,.47-1.71,0-.47-.47-.47-1.24,0-1.71,.47-.47,1.24-.47,1.71,0,.22,.22,.35,.53,.35,.84,0,.33-.12,.64-.36,.86"/><path id="Path_6286" class="cls-4" d="M176.08,259.55c-.47,.47-1.24,.47-1.71,0-.47-.47-.47-1.24,0-1.71s1.24-.47,1.71,0c.22,.22,.35,.53,.35,.84,0,.33-.12,.64-.36,.86"/><path id="Path_6287" class="cls-4" d="M191.53,259.44c-.47,.47-1.24,.47-1.71,0-.47-.47-.47-1.24,0-1.71,.47-.47,1.24-.47,1.71,0,.22,.22,.35,.53,.35,.84,0,.33-.12,.64-.36,.86"/><path id="Path_6288" class="cls-4" d="M206.98,259.33c-.47,.47-1.24,.47-1.71,0-.47-.47-.47-1.24,0-1.71s1.24-.47,1.71,0c.22,.22,.35,.53,.35,.84,0,.33-.12,.64-.36,.86"/><path id="Path_6289" class="cls-4" d="M222.43,259.23c-.47,.47-1.24,.47-1.71,0-.47-.47-.47-1.24,0-1.71,.47-.47,1.24-.47,1.71,0,.22,.22,.35,.53,.35,.84,0,.33-.12,.64-.36,.86"/><path id="Path_6290" class="cls-4" d="M237.88,259.12c-.47,.47-1.24,.47-1.71,0-.47-.47-.47-1.24,0-1.71s1.24-.47,1.71,0c.22,.22,.35,.53,.35,.84,0,.33-.12,.64-.36,.86"/><path id="Path_6291" class="cls-4" d="M253.33,259.01c-.47,.47-1.24,.47-1.71,0-.47-.47-.47-1.24,0-1.71,.47-.47,1.24-.47,1.71,0,.22,.22,.35,.53,.35,.84,0,.33-.12,.64-.36,.86"/><path id="Path_6292" class="cls-4" d="M268.78,258.9c-.47,.47-1.24,.47-1.71,0-.47-.47-.47-1.24,0-1.71,.47-.47,1.24-.47,1.71,0,.22,.22,.35,.53,.35,.84,0,.33-.12,.64-.36,.86"/><path id="Path_6293" class="cls-4" d="M284.23,258.79c-.47,.47-1.24,.47-1.71,0-.47-.47-.47-1.24,0-1.71,.47-.47,1.24-.47,1.71,0,.22,.22,.35,.53,.35,.84,0,.33-.12,.64-.36,.86"/><path id="Path_6294" class="cls-4" d="M299.68,258.69c-.47,.47-1.24,.47-1.71,0-.47-.47-.47-1.24,0-1.71,.47-.47,1.24-.47,1.71,0,.22,.22,.35,.53,.35,.84,0,.33-.12,.64-.36,.86"/><path id="Path_6295" class="cls-4" d="M52.66,285.42c-.47,.47-1.24,.47-1.71,0-.47-.47-.47-1.24,0-1.71,.47-.47,1.24-.47,1.71,0,.22,.22,.35,.53,.35,.84,0,.33-.12,.64-.36,.86"/><path id="Path_6296" class="cls-4" d="M68.11,285.31c-.47,.47-1.24,.47-1.71,0-.47-.47-.47-1.24,0-1.71,.47-.47,1.24-.47,1.71,0,.22,.22,.35,.53,.35,.84,0,.33-.12,.64-.36,.86"/><path id="Path_6297" class="cls-4" d="M83.56,285.2c-.47,.47-1.24,.47-1.71,0s-.47-1.24,0-1.71,1.24-.47,1.71,0c.22,.22,.35,.53,.35,.84,0,.33-.12,.64-.36,.86"/><path id="Path_6298" class="cls-4" d="M99.01,285.09c-.47,.47-1.24,.47-1.71,0-.47-.47-.47-1.24,0-1.71,.47-.47,1.24-.47,1.71,0,.22,.22,.35,.53,.35,.84,0,.33-.12,.64-.36,.86"/><path id="Path_6299" class="cls-4" d="M114.46,284.99c-.47,.47-1.24,.47-1.71,0s-.47-1.24,0-1.71,1.24-.47,1.71,0c.22,.22,.35,.53,.35,.84,0,.33-.12,.64-.36,.86"/><path id="Path_6300" class="cls-4" d="M129.91,284.88c-.47,.47-1.24,.47-1.71,0-.47-.47-.47-1.24,0-1.71,.47-.47,1.24-.47,1.71,0,.22,.22,.35,.53,.35,.84,0,.33-.12,.64-.36,.86"/><path id="Path_6301" class="cls-4" d="M145.36,284.77c-.47,.47-1.24,.47-1.71,0-.47-.47-.47-1.24,0-1.71,.47-.47,1.24-.47,1.71,0,.22,.22,.35,.53,.35,.84,0,.33-.12,.64-.36,.86"/><path id="Path_6302" class="cls-4" d="M160.81,284.66c-.47,.47-1.24,.47-1.71,0-.47-.47-.47-1.24,0-1.71,.47-.47,1.24-.47,1.71,0,.22,.22,.35,.53,.35,.84,0,.33-.12,.64-.36,.86"/><path id="Path_6303" class="cls-4" d="M176.26,284.55c-.47,.47-1.24,.47-1.71,0-.47-.47-.47-1.24,0-1.71,.47-.47,1.24-.47,1.71,0,.22,.22,.35,.53,.35,.84,0,.33-.12,.64-.36,.86"/><path id="Path_6304" class="cls-4" d="M191.71,284.44c-.47,.47-1.24,.47-1.71,0-.47-.47-.47-1.24,0-1.71,.47-.47,1.24-.47,1.71,0,.22,.22,.35,.53,.35,.84,0,.33-.12,.64-.36,.86"/><path id="Path_6305" class="cls-4" d="M207.16,284.34c-.47,.47-1.24,.47-1.71,0-.47-.47-.47-1.24,0-1.71s1.24-.47,1.71,0c.22,.22,.35,.53,.35,.84,0,.33-.12,.64-.36,.86"/><path id="Path_6306" class="cls-4" d="M222.61,284.23c-.47,.47-1.24,.47-1.71,0-.47-.47-.47-1.24,0-1.71,.47-.47,1.24-.47,1.71,0,.22,.22,.35,.53,.35,.84,0,.33-.12,.64-.36,.86"/><path id="Path_6307" class="cls-4" d="M238.05,284.12c-.47,.47-1.24,.47-1.71,0-.47-.47-.47-1.24,0-1.71,.47-.47,1.24-.47,1.71,0,.22,.22,.35,.53,.35,.84,0,.33-.12,.64-.36,.86"/><path id="Path_6308" class="cls-4" d="M253.5,284.01c-.47,.47-1.24,.47-1.71,0-.47-.47-.47-1.24,0-1.71s1.24-.47,1.71,0c.22,.22,.35,.53,.35,.84,0,.33-.12,.64-.36,.86"/><path id="Path_6309" class="cls-4" d="M268.95,283.9c-.47,.47-1.24,.47-1.71,0s-.47-1.24,0-1.71c.47-.47,1.24-.47,1.71,0,.22,.22,.35,.53,.35,.84,0,.33-.12,.64-.36,.86"/><path id="Path_6310" class="cls-4" d="M284.4,283.79c-.47,.47-1.24,.47-1.71,0-.47-.47-.47-1.24,0-1.71,.47-.47,1.24-.47,1.71,0,.22,.22,.35,.53,.35,.84,0,.33-.12,.64-.36,.86"/><path id="Path_6311" class="cls-4" d="M299.85,283.69c-.47,.47-1.24,.47-1.71,0s-.47-1.24,0-1.71c.47-.47,1.24-.47,1.71,0,.22,.22,.35,.53,.35,.84,0,.33-.12,.64-.36,.86"/><g id="Group_426" class="cls-10"><g id="Group_425"><g class="cls-6"><g id="Group_424"><g id="Group_423" class="cls-10"><g id="Group_422"><g class="cls-9"><g id="Group_421"><path id="Path_6312" class="cls-5" d="M330.91,73.9c2.37-2.84,4.28-6.02,6.62-8.88,.89-1.22,1.91-2.35,3.04-3.35L266.9,0c-1.05,2.69-4.38,5.77-5.74,7.47-4.32,5.39-8.65,10.78-13.17,16l73.42,61.45c2.48-4.1,6.4-7.29,9.52-11.02"/></g></g></g></g></g></g></g></g><g id="Group_432" class="cls-10"><g id="Group_431"><g class="cls-8"><g id="Group_430"><g id="Group_429" class="cls-10"><g id="Group_428"><g class="cls-7"><g id="Group_427"><path id="Path_6313" class="cls-5" d="M82.93,328.8c2.37-2.84,4.28-6.02,6.62-8.88,.89-1.22,1.91-2.35,3.04-3.35L18.92,254.9c-1.05,2.69-4.38,5.77-5.74,7.47C8.86,267.77,4.52,273.15,0,278.37l73.41,61.45c2.49-4.1,6.4-7.29,9.51-11.02"/></g></g></g></g></g></g></g></g></g></g></svg>