<?xml version="1.0" encoding="UTF-8"?><svg id="Layer_2" xmlns="http://www.w3.org/2000/svg" xmlns:xlink="http://www.w3.org/1999/xlink" viewBox="0 0 325.33 302.88"><defs><style>.cls-1{fill:none;}.cls-2{clip-path:url(#clippath);}.cls-3{fill:#f1f1f1;}.cls-4{fill:#c9ad94;}.cls-5{fill:#cfd1d2;}.cls-6{fill:#cbb9ab;}.cls-7{clip-path:url(#clippath-1);}.cls-8{clip-path:url(#clippath-2);}.cls-9{opacity:.8;}</style><clipPath id="clippath"><rect class="cls-1" x="31.51" y="15.37" width="293.81" height="287.5"/></clipPath><clipPath id="clippath-1"><rect class="cls-1" y="0" width="82.43" height="34.39"/></clipPath><clipPath id="clippath-2"><rect class="cls-1" y="0" width="82.43" height="34.39"/></clipPath></defs><g id="Layer_1-2"><g><g id="Group_408"><g id="Group_407"><g class="cls-2"><g id="Group_406"><path id="Path_6138" class="cls-5" d="M324.44,289.72l.88-273.4-292.9-.94-.89,275.09-.03,8.87c1.18,.47,2.21,1.25,2.98,2.27,.54-1.08,2.25-1.99,2.74-2.85,.52,.52,7.22,4.62,7.21,4.08-.04-2.79,3.71-3.7,6.5-3.69,13.8,.05,27.58,.57,41.35,1.57l1.57-.68c11.04,1.37,22.24-.32,32.39-4.88,1.05,2.4,3.72,3.66,6.27,4.26,5.42,1.24,11.1,.43,15.96-2.28l7.68,3.9,4.26-5.55c1.41,1.83,3.99,2.17,6.29,2.37l7.21,.62c2.69,.23,5.81,.3,7.6-1.73,.56,3.62,5.33,4.81,8.91,4.07s7.16-2.55,10.73-1.75c2.82,.64,5.15,2.84,8.02,3.2,3.25,.41,6.23-1.61,9.31-2.72s7.45-.72,8.43,2.4c1.05-1.13,2.1-2.27,3.15-3.4,3.04,1.76,6.9,1.11,9.2-1.55,4.2,2.6,9.44,2.87,13.88,.71,1.12-.72,2.36-1.22,3.66-1.48,3.1-.25,5.57,3.23,8.67,2.99,1.49-.11,2.76-1.08,4.06-1.81,5.36-2.87,11.94-2.16,16.55,1.8,1.28-2.87,3.46-5.23,6.22-6.73,.36,3.89,6.94,4.93,8.49,1.35l3.7,4.22c1-1.84,3.56-1.91,5.64-1.73l14.28,1.18,.03-7.78Z"/></g></g></g></g><path id="Path_6139" class="cls-4" d="M43.11,283.55c2.42,.59,4.19,2.95,6.66,3.23,2.1,.24,4.04-1.1,6.13-1.41,1.7-.13,3.41,.07,5.05,.58,10.94,2.56,22.23,3.3,33.42,2.2,2.75-.27,5.61-.71,7.85-2.32,1.66-1.2,2.87-2.98,4.69-3.91,1.97-1.02,4.32-.87,6.53-.69l70.24,5.53c33.04,2.6,66.34,5.2,99.24,1.23,12.32-1.49,24.76-3.88,37.07-2.86l.88-273.4L27.96,10.78l-.89,275.09c3.99-.73,7.98-1.44,11.97-2.16,1.33-.34,2.71-.39,4.06-.16"/><path id="Path_6140" class="cls-6" d="M30.03,297.01c.55-1.08,2.25-1.99,2.74-2.86,.52,.52,7.22,4.62,7.21,4.08-.04-2.79,3.71-3.7,6.5-3.69,13.8,.05,27.58,.58,41.35,1.57l1.57-.68c11.04,1.37,22.24-.32,32.39-4.88,1.06,2.4,3.72,3.66,6.27,4.26,5.42,1.24,11.1,.43,15.96-2.28l7.68,3.9,4.26-5.55c1.41,1.83,3.99,2.17,6.29,2.37l7.21,.62c2.69,.23,5.81,.3,7.6-1.73,.56,3.62,5.33,4.81,8.91,4.07s7.16-2.55,10.73-1.75c2.82,.64,5.15,2.84,8.02,3.2,3.25,.41,6.23-1.61,9.31-2.72s7.45-.72,8.43,2.41c1.05-1.13,2.1-2.27,3.15-3.4,3.04,1.76,6.9,1.11,9.2-1.55,4.2,2.6,9.44,2.87,13.88,.71,1.11-.72,2.36-1.22,3.66-1.47,3.1-.25,5.57,3.23,8.67,2.99,1.49-.11,2.76-1.08,4.06-1.81,5.36-2.88,11.94-2.16,16.55,1.8,1.28-2.87,3.46-5.23,6.22-6.73,.36,3.89,6.94,4.93,8.49,1.35l3.7,4.22c1-1.84,3.56-1.91,5.64-1.73l14.28,1.18,.02-7.78c-12.3-1.02-24.74,1.37-37.06,2.86-32.9,3.97-66.2,1.37-99.24-1.23l-70.24-5.54c-2.21-.17-4.56-.32-6.53,.69-1.82,.93-3.03,2.72-4.69,3.91-2.24,1.62-5.1,2.05-7.85,2.32-11.18,1.1-22.47,.36-33.42-2.2-1.63-.51-3.34-.7-5.05-.58-2.09,.31-4.03,1.64-6.13,1.41-2.47-.28-4.24-2.64-6.66-3.23-1.35-.23-2.73-.17-4.06,.16-3.99,.72-7.99,1.43-11.97,2.16l-.03,8.87c1.18,.47,2.21,1.25,2.98,2.27"/><g id="Group_414" class="cls-9"><g id="Group_413"><g class="cls-7"><g id="Group_412"><g id="Group_411" class="cls-9"><g id="Group_410"><g class="cls-8"><g id="Group_409"><path id="Path_6141" class="cls-3" d="M81.35,9.02c-.14-.54-.39-1.03-.55-1.56-.19-.72-.28-1.46-.29-2.2-.17-3.27-.29-1.08-.18-4.35,0-.31,.04-.61,.11-.91L.07,4.31c-.03,.1-.05,.2-.06,.3,.03,.9,.14,1.79,.33,2.67,.47,3.71,.63,7.45,.49,11.18-.09,.95-.04,1.91,.15,2.84,.14,.53,.38,1.04,.53,1.57,.19,.78,.28,1.58,.27,2.39,.1,3.05,.19,6.09,.29,9.14l80.36-4.31c-.75-6.19-1.07-12.42-.97-18.65,.09-.8,.05-1.62-.11-2.41"/></g></g></g></g></g></g></g></g></g></g></svg>