<?xml version="1.0" encoding="UTF-8"?><svg id="Layer_2" xmlns="http://www.w3.org/2000/svg" xmlns:xlink="http://www.w3.org/1999/xlink" viewBox="0 0 353.11 321.71"><defs><style>.cls-1{fill:none;}.cls-2{clip-path:url(#clippath);}.cls-3{fill:#f8f1ee;}.cls-4{fill:#e7ae48;}.cls-5{fill:#cfd1d2;}.cls-6{fill:#dcb798;}.cls-7{clip-path:url(#clippath-1);}.cls-8{clip-path:url(#clippath-4);}.cls-9{clip-path:url(#clippath-3);}.cls-10{clip-path:url(#clippath-2);}.cls-11{opacity:.8;}</style><clipPath id="clippath"><rect class="cls-1" x="26.22" y="25.89" width="295.71" height="295.72"/></clipPath><clipPath id="clippath-1"><rect class="cls-1" y="0" width="91.29" height="86.83"/></clipPath><clipPath id="clippath-2"><rect class="cls-1" y="0" width="91.29" height="86.83"/></clipPath><clipPath id="clippath-3"><rect class="cls-1" x="253.06" y="3.7" width="100.06" height="54.03"/></clipPath><clipPath id="clippath-4"><rect class="cls-1" x="253.06" y="3.7" width="100.06" height="54.03"/></clipPath></defs><g id="Layer_1-2"><g><g id="Group_356"><g id="Group_355"><g id="Group_354"><g class="cls-2"><g id="Group_353"><rect id="Rectangle_776" class="cls-5" x="27.68" y="27.34" width="292.91" height="292.91" transform="translate(-1.39 346.18) rotate(-89.43)"/></g></g></g></g></g><rect id="Rectangle_779" class="cls-3" x="25.71" y="22.5" width="292.91" height="292.91" transform="translate(1.49 339.42) rotate(-89.43)"/><path id="Path_6042" class="cls-6" d="M303.89,82.39l-261.86-2.53v-.25l261.86,2.53v.25Z"/><path id="Path_6043" class="cls-6" d="M303.67,105.23l-261.86-2.53v-.25l261.86,2.53v.25Z"/><path id="Path_6044" class="cls-6" d="M303.45,128.07l-261.86-2.53v-.25l261.86,2.53v.25Z"/><path id="Path_6045" class="cls-6" d="M303.23,150.91l-261.86-2.53v-.25l261.86,2.53v.25Z"/><path id="Path_6046" class="cls-6" d="M303.01,173.75l-261.86-2.53v-.25l261.86,2.53v.25Z"/><path id="Path_6047" class="cls-6" d="M302.79,196.59l-261.86-2.53v-.25l261.86,2.53v.25Z"/><path id="Path_6048" class="cls-6" d="M302.57,219.43l-261.86-2.53v-.25l261.86,2.53v.25Z"/><path id="Path_6049" class="cls-6" d="M302.34,242.27l-261.86-2.53v-.25l261.86,2.53v.25Z"/><path id="Path_6050" class="cls-6" d="M302.12,265.11l-261.87-2.54v-.25l261.87,2.53v.26Z"/><path id="Path_6051" class="cls-6" d="M301.9,287.95l-261.86-2.53v-.25l261.86,2.53v.25Z"/><g id="Group_363" class="cls-11"><g id="Group_362"><g class="cls-7"><g id="Group_361"><g id="Group_360" class="cls-11"><g id="Group_359"><g class="cls-10"><g id="Group_358"><path id="Path_6052" class="cls-4" d="M81.6,11.17c-2.51-2.72-5.41-5.03-7.94-7.72-1.1-1.04-2.08-2.2-2.93-3.45L0,65.03c2.53,1.39,5.15,5.09,6.66,6.67,4.79,4.98,9.56,9.98,14.15,15.14L91.29,22.04c-3.74-3-6.4-7.3-9.69-10.87"/></g></g></g></g></g></g></g></g><g id="Group_369" class="cls-11"><g id="Group_368"><g class="cls-9"><g id="Group_367"><g id="Group_366" class="cls-11"><g id="Group_365"><g class="cls-8"><g id="Group_364"><path id="Path_6053" class="cls-4" d="M349.51,43.72c.95-3.57,1.34-7.26,2.26-10.84,.29-1.49,.74-2.94,1.35-4.33L260.31,3.7c.18,2.88-1.54,7.07-2.06,9.2-1.64,6.71-3.3,13.42-5.2,20.06l92.48,24.77c.53-4.76,2.73-9.31,3.98-14.01"/></g></g></g></g></g></g></g></g></g></g></svg>