<?xml version="1.0" encoding="UTF-8"?><svg id="Layer_2" xmlns="http://www.w3.org/2000/svg" xmlns:xlink="http://www.w3.org/1999/xlink" viewBox="0 0 300.28 318.78"><defs><style>.cls-1{fill:none;}.cls-2{clip-path:url(#clippath);}.cls-3{fill:#fff;}.cls-4{fill:#cfd1d2;}.cls-5{fill:#85c5d0;}.cls-6{clip-path:url(#clippath-1);}.cls-7{clip-path:url(#clippath-2);}.cls-8{opacity:.8;}</style><clipPath id="clippath"><rect class="cls-1" x="4.98" y="23.49" width="295.29" height="295.29"/></clipPath><clipPath id="clippath-1"><rect class="cls-1" x="33.58" width="120" height="39.76"/></clipPath><clipPath id="clippath-2"><rect class="cls-1" x="33.58" width="120" height="39.76"/></clipPath></defs><g id="Layer_1-2"><g><g id="Group_372"><g id="Group_371"><g class="cls-2"><g id="Group_370"><path id="Path_6054" class="cls-4" d="M297.87,23.49L4.98,25.89l2.4,292.89,292.89-2.4-2.4-292.89ZM18.61,46.28c-.03-3.87,3.08-7.02,6.95-7.05,3.87-.03,7.02,3.08,7.05,6.95,.03,3.86-3.08,7.02-6.94,7.05-3.87,.03-7.03-3.07-7.06-6.94h0m.26,31.86c-.03-3.87,3.08-7.02,6.95-7.05,3.87-.03,7.02,3.08,7.05,6.95,.03,3.86-3.08,7.02-6.94,7.05-3.87,.03-7.03-3.07-7.06-6.94h0m.26,31.86c-.03-3.87,3.08-7.02,6.95-7.05,3.87-.03,7.02,3.08,7.05,6.95,.03,3.86-3.08,7.02-6.94,7.05-3.87,.03-7.03-3.07-7.06-6.94h0m.26,31.86c-.03-3.87,3.08-7.02,6.95-7.05,3.87-.03,7.02,3.08,7.05,6.95,.03,3.86-3.08,7.02-6.94,7.05-3.87,.03-7.03-3.07-7.06-6.94h0m.26,31.87c-.03-3.87,3.08-7.02,6.95-7.05,3.87-.03,7.02,3.08,7.05,6.95,.03,3.86-3.08,7.02-6.94,7.05-3.87,.03-7.03-3.07-7.06-6.94h0m.26,31.86c-.03-3.87,3.08-7.02,6.95-7.05,3.87-.03,7.02,3.08,7.05,6.95,.03,3.86-3.08,7.02-6.94,7.05-3.87,.03-7.03-3.07-7.06-6.94h0m.26,31.86c-.03-3.87,3.08-7.02,6.95-7.05,3.87-.03,7.02,3.08,7.05,6.95,.03,3.86-3.08,7.02-6.94,7.05-3.87,.03-7.03-3.07-7.06-6.94h0m.26,31.86c-.03-3.87,3.08-7.02,6.95-7.05,3.87-.03,7.02,3.08,7.05,6.95,.03,3.86-3.08,7.02-6.94,7.05-3.87,.03-7.03-3.07-7.06-6.94h0m7.32,38.81c-3.87,.03-7.02-3.08-7.05-6.95-.03-3.87,3.08-7.02,6.95-7.05,3.86-.03,7.02,3.08,7.05,6.94,.03,3.87-3.07,7.03-6.94,7.06h0"/></g></g></g></g><path id="Path_6055" class="cls-3" d="M292.89,18.47L0,20.87,2.4,313.76l292.89-2.4-2.4-292.89ZM13.62,41.26c-.03-3.87,3.08-7.02,6.95-7.05,3.87-.03,7.02,3.08,7.05,6.95,.03,3.86-3.08,7.02-6.94,7.05-3.87,.03-7.03-3.07-7.06-6.94h0m.26,31.86c-.03-3.87,3.08-7.02,6.95-7.05,3.87-.03,7.02,3.08,7.05,6.95,.03,3.86-3.08,7.02-6.94,7.05-3.87,.03-7.03-3.07-7.06-6.94h0m.26,31.86c-.03-3.87,3.08-7.02,6.95-7.05,3.87-.03,7.02,3.08,7.05,6.95,.03,3.86-3.08,7.02-6.94,7.05-3.87,.03-7.03-3.07-7.06-6.94h0m.26,31.86c-.03-3.87,3.08-7.02,6.95-7.05,3.87-.03,7.02,3.08,7.05,6.95,.03,3.86-3.08,7.02-6.94,7.05-3.87,.03-7.03-3.07-7.06-6.94h0m.26,31.87c-.03-3.87,3.08-7.02,6.95-7.05,3.87-.03,7.02,3.08,7.05,6.95,.03,3.86-3.08,7.02-6.94,7.05-3.87,.03-7.03-3.07-7.06-6.94h0m.26,31.86c-.03-3.87,3.08-7.02,6.95-7.05,3.87-.03,7.02,3.08,7.05,6.95,.03,3.86-3.08,7.02-6.94,7.05-3.87,.03-7.03-3.07-7.06-6.94h0m.26,31.87c-.03-3.87,3.08-7.02,6.95-7.05,3.87-.03,7.02,3.08,7.05,6.95,.03,3.86-3.08,7.02-6.94,7.05-3.87,.03-7.03-3.07-7.06-6.94h0m.26,31.86c-.03-3.87,3.08-7.02,6.95-7.05,3.87-.03,7.02,3.08,7.05,6.95,.03,3.86-3.08,7.02-6.94,7.05-3.87,.03-7.03-3.07-7.06-6.94h0m7.32,38.81c-3.87,.03-7.02-3.08-7.05-6.95-.03-3.87,3.08-7.02,6.95-7.05,3.86-.03,7.02,3.08,7.05,6.94,.03,3.87-3.07,7.03-6.94,7.06h0"/><g id="Group_378" class="cls-8"><g id="Group_377"><g class="cls-6"><g id="Group_376"><g id="Group_375" class="cls-8"><g id="Group_374"><g class="cls-7"><g id="Group_373"><path id="Path_6056" class="cls-5" d="M34.04,14.63c.5,4.01,.94,8.02,1.3,12.05,.39,4.36,.7,8.72,1.01,13.09l117.24-9.79c-.71-4.17-1.14-8.39-1.28-12.61,.05-1.76-.18-3.53-.68-5.22-.3-.62-.5-1.28-.56-1.97,.06-.52,.16-1.04,.3-1.54,.09-.78,.04-1.58-.14-2.35C151.07,4.5,149.82,1.84,150.2,0L33.58,9.74c.33,1.55,.28,3.5,.45,4.88"/></g></g></g></g></g></g></g></g></g></g></svg>