<?xml version="1.0" encoding="UTF-8"?><svg id="Layer_2" xmlns="http://www.w3.org/2000/svg" xmlns:xlink="http://www.w3.org/1999/xlink" viewBox="0 0 309.83 337.49"><defs><style>.cls-1{fill:none;}.cls-2{clip-path:url(#clippath);}.cls-3{fill:#f6f6f7;}.cls-4{fill:#a32330;}.cls-5{fill:#a5a7a8;}.cls-6{fill:#cfd1d2;}.cls-7{fill:#6d7a9d;}.cls-8{clip-path:url(#clippath-1);}.cls-9{clip-path:url(#clippath-2);}.cls-10{opacity:.8;}</style><clipPath id="clippath"><rect class="cls-1" x="4.82" y="32.49" width="305.01" height="305.01"/></clipPath><clipPath id="clippath-1"><rect class="cls-1" x="4.85" y="8.64" width="43.08" height="63.89"/></clipPath><clipPath id="clippath-2"><rect class="cls-1" x="244.09" y="0" width="38.05" height="60.52"/></clipPath></defs><g id="Layer_1-2"><g><g id="Group_387"><g id="Group_386"><g class="cls-2"><g id="Group_385"><rect id="Rectangle_839" class="cls-6" x="10.87" y="38.54" width="292.9" height="292.9" transform="translate(-7.67 6.81) rotate(-2.42)"/></g></g></g></g><rect id="Rectangle_841" class="cls-3" x="6.05" y="33.36" width="292.9" height="292.9" transform="translate(-7.46 6.6) rotate(-2.42)"/><path id="Path_6106" class="cls-5" d="M289.58,49.67l-1,.04-3,.13-1,.04-3,.13-1,.04-3,.13-1,.04-3,.13-1,.04-3,.13-1,.04-3,.13-1,.04-3,.13-1,.04-3,.13-1,.04-3,.13-1,.04-3,.13-1,.04-3,.13-1,.04-3,.13-1,.04-3,.13-1,.04-3,.13-1,.04-3,.13-1,.04-3,.13-1,.04-3,.13-1,.04-3,.13-1,.04-3,.13-1,.04-3,.13-1,.04-3,.13-1,.04-3,.13-1,.04-3,.13-1,.04-3,.13-1,.04-3,.13-1,.04-3,.13-1,.04-3,.13-1,.04-3,.13-1,.04-3,.13-1,.04-3,.13-1,.04-3,.13-1,.04-3,.13-1,.04-3,.13-1,.04-3,.13-1,.04-3,.13-1,.04-3,.13-1,.04-3,.13-1,.04-3,.13-1,.04-3,.13-1,.04-3,.13-1,.04-3,.13-1,.04-3,.13-1,.04-3,.13-1,.04-3,.13-1,.04-3,.13-1,.04-3,.13-1,.04-3,.13-1,.04-3,.13-1,.04-3,.13-1,.04-3,.13-1,.04-3,.13-1,.04-3,.13-1,.04-3,.13-1,.04-3,.13-1,.04-3,.13-1,.04-3,.13-1,.04-3,.13-1,.04-3,.13-1,.04-3,.13-1,.04-3,.13-1,.04-3,.13-1,.04-3,.13-1,.04-3,.13-1,.04-3,.13-1,.04-3,.13-1,.04-3,.13-1,.04-3,.13-1,.04-3,.13-1,.04-3,.13-1,.04-3,.13-1,.04-3,.13-1,.04-4,.17,.02,.5,4-.17,1-.04,3-.13,1-.04,3-.13,1-.04,3-.13,1-.04,3-.13,1-.04,3-.13,1-.04,3-.13,1-.04,3-.13,1-.04,3-.13,1-.04,3-.13,1-.04,3-.13,1-.04,3-.13,1-.04,3-.13,1-.04,3-.13,1-.04,3-.13,1-.04,3-.13,1-.04,3-.13,1-.04,3-.13,1-.04,3-.13,1-.04,3-.13,1-.04,3-.13,1-.04,3-.13,1-.04,3-.13,1-.04,3-.13,1-.04,3-.13,1-.04,3-.13,1-.04,3-.13,1-.04,3-.13,1-.04,3-.13,1-.04,3-.13,1-.04,3-.13,1-.04,3-.13,1-.04,3-.13,1-.04,3-.13,1-.04,3-.13,1-.04,3-.13,1-.04,3-.13,1-.04,3-.13,1-.04,3-.13,1-.04,3-.13,1-.04,3-.13,1-.04,3-.13,1-.04,3-.13,1-.04,3-.13,1-.04,3-.13,1-.04,3-.13,1-.04,3-.13,1-.04,3-.13,1-.04,3-.13,1-.04,3-.13,1-.04,3-.13,1-.04,3-.13,1-.04,3-.13,1-.04,3-.13,1-.04,3-.13,1-.04,3-.13,1-.04,3-.13,1-.04,3-.13,1-.04,3-.13,1-.04,3-.13,1-.04,3-.13,1-.04,3-.13,1-.04,3-.13,1-.04,3-.13,1-.04,3-.13,1-.04,3-.13,1-.04,3-.13,1-.04,3-.13,1-.04,3-.13,1-.04,3-.13,1-.04,3-.13,1-.04,3-.13,1-.04,3.99-.17-.02-.5-3.99,.17Z"/><path id="Path_6107" class="cls-5" d="M289.51,71.69l-3,.13-1,.04-3,.13-1,.04-3,.13-1,.04-3,.13-1,.04-3,.13-1,.04-3,.13-1,.04-3,.13-1,.04-3,.13-1,.04-3,.13-1,.04-3,.13-1,.04-3,.13-1,.04-3,.13-1,.04-3,.13-1,.04-3,.13-1,.04-3,.13-1,.04-3,.13-1,.04-3,.13-1,.04-3,.13-1,.04-3,.13-1,.04-3,.13-1,.04-3,.13-1,.04-3,.13-1,.04-3,.13-1,.04-3,.13-1,.04-3,.13-1,.04-3,.13-1,.04-3,.13-1,.04-3,.13-1,.04-3,.13-1,.04-3,.13-1,.04-3,.13-1,.04-3,.13-1,.04-3,.13-1,.04-3,.13-1,.04-3,.13-1,.04-3,.13-1,.04-3,.13-1,.04-3,.13-1,.04-3,.13-1,.04-3,.13-1,.04-3,.13-1,.04-3,.13-1,.04-3,.13-1,.04-3,.13-1,.04-3,.13-1,.04-3,.13-1,.04-3,.13-1,.04-3,.13-1,.04-3,.13-1,.04-3,.13-1,.04-3,.13-1,.04-3,.13-1,.04-3,.13-1,.04-3,.13-1,.04-3,.13-1,.04-3,.13-1,.04-3,.13-1,.04-3,.13-1,.04-3,.13-1,.04-3,.13-1,.04-3,.13-1,.04-3,.13-1,.04-3,.13-1,.04-3,.13-1,.04-3,.13-1,.04-3,.13-1,.04-3,.13-1,.04-3,.13-1,.04-3,.13-1,.04-3,.13-1,.04-3,.13-1,.04-4,.17,.02,.5,3.99-.17,1-.04,3-.13,1-.04,3-.13,1-.04,3-.13,1-.04,3-.13,1-.04,3-.13,1-.04,3-.13,1-.04,3-.13,1-.04,3-.13,1-.04,3-.13,1-.04,3-.13,1-.04,3-.13,1-.04,3-.13,1-.04,3-.13,1-.04,3-.13,1-.04,3-.13,1-.04,3-.13,1-.04,3-.13,1-.04,3-.13,1-.04,3-.13,1-.04,3-.13,1-.04,3-.13,1-.04,3-.13,1-.04,3-.13,1-.04,3-.13,1-.04,3-.13,1-.04,3-.13,1-.04,3-.13,1-.04,3-.13,1-.04,3-.13,1-.04,3-.13,1-.04,3-.13,1-.04,3-.13,1-.04,3-.13,1-.04,3-.13,1-.04,3-.13,1-.04,3-.13,1-.04,3-.13,1-.04,3-.13,1-.04,3-.13,1-.04,3-.13,1-.04,3-.13,1-.04,3-.13,1-.04,3-.13,1-.04,3-.13,1-.04,3-.13,1-.04,3-.13,1-.04,3-.13,1-.04,3-.13,1-.04,3-.13,1-.04,3-.13,1-.04,3-.13,1-.04,3-.13,1-.04,3-.13,1-.04,3-.13,1-.04,3-.13,1-.04,3-.13,1-.04,3-.13,1-.04,3-.13,1-.04,3-.13,1-.04,3-.13,1-.04,3-.13,1-.04,3-.13,1-.04,3-.13,1-.04,3-.13,1-.04,3-.13,1-.04,3-.13,1-.04,3-.13,1-.04,3-.13,1-.04,3-.13,1-.04,3-.13,1-.04,3-.13,1-.04,3.99-.17-.02-.5-3.99,.17-1,.04Z"/><path id="Path_6108" class="cls-5" d="M290.44,93.68l-3,.13-1,.04-3,.13-1,.04-3,.13-1,.04-3,.13-1,.04-3,.13-1,.04-3,.13-1,.04-3,.13-1,.04-3,.13-1,.04-3,.13-1,.04-3,.13-1,.04-3,.13-1,.04-3,.13-1,.04-3,.13-1,.04-3,.13-1,.04-3,.13-1,.04-3,.13-1,.04-3,.13-1,.04-3,.13-1,.04-3,.13-1,.04-3,.13-1,.04-3,.13-1,.04-3,.13-1,.04-3,.13-1,.04-3,.13-1,.04-3,.13-1,.04-3,.13-1,.04-3,.13-1,.04-3,.13-1,.04-3,.13-1,.04-3,.13-1,.04-3,.13-1,.04-3,.13-1,.04-3,.13-1,.04-3,.13-1,.04-3,.13-1,.04-3,.13-1,.04-3,.13-1,.04-3,.13-1,.04-3,.13-1,.04-3,.13-1,.04-3,.13-1,.04-3,.13-1,.04-3,.13-1,.04-3,.13-1,.04-3,.13-1,.04-3,.13-1,.04-3,.13-1,.04-3,.13-1,.04-3,.13-1,.04-3,.13-1,.04-3,.13-1,.04-3,.13-1,.04-3,.13-1,.04-3,.13-1,.04-3,.13-1,.04-3,.13-1,.04-3,.13-1,.04-3,.13-1,.04-3,.13-1,.04-3,.13-1,.04-3,.13-1,.04-3,.13-1,.04-3,.13-1,.04-3,.13-1,.04-3,.13-1,.04-3,.13-1,.04-3,.13-1,.04-3,.13-1,.04-3,.13-1,.04-3,.13-1,.04-3,.13-1,.04-4,.17,.02,.5,3.99-.17,1-.04,3-.13,1-.04,3-.13,1-.04,3-.13,1-.04,3-.13,1-.04,3-.13,1-.04,3-.13,1-.04,3-.13,1-.04,3-.13,1-.04,3-.13,1-.04,3-.13,1-.04,3-.13,1-.04,3-.13,1-.04,3-.13,1-.04,3-.13,1-.04,3-.13,1-.04,3-.13,1-.04,3-.13,1-.04,3-.13,1-.04,3-.13,1-.04,3-.13,1-.04,3-.13,1-.04,3-.13,1-.04,3-.13,1-.04,3-.13,1-.04,3-.13,1-.04,3-.13,1-.04,3-.13,1-.04,3-.13,1-.04,3-.13,1-.04,3-.13,1-.04,3-.13,1-.04,3-.13,1-.04,3-.13,1-.04,3-.13,1-.04,3-.13,1-.04,3-.13,1-.04,3-.13,1-.04,3-.13,1-.04,3-.13,1-.04,3-.13,1-.04,3-.13,1-.04,3-.13,1-.04,3-.13,1-.04,3-.13,1-.04,3-.13,1-.04,3-.13,1-.04,3-.13,1-.04,3-.13,1-.04,3-.13,1-.04,3-.13,1-.04,3-.13,1-.04,3-.13,1-.04,3-.13,1-.04,3-.13,1-.04,3-.13,1-.04,3-.13,1-.04,3-.13,1-.04,3-.13,1-.04,3-.13,1-.04,3-.13,1-.04,3-.13,1-.04,3-.13,1-.04,3-.13,1-.04,3-.13,1-.04,3-.13,1-.04,3-.13,1-.04,3-.13,1-.04,3-.13,1-.04,3-.13,1-.04,3-.13,1-.04,3-.13,1-.04,3.99-.17-.02-.5-3.99,.17-1,.04Z"/><path id="Path_6109" class="cls-5" d="M291.37,115.66l-3,.13-1,.04-3,.13-1,.04-3,.13-1,.04-3,.13-1,.04-3,.13-1,.04-3,.13-1,.04-3,.13-1,.04-3,.13-1,.04-3,.13-1,.04-3,.13-1,.04-3,.13-1,.04-3,.13-1,.04-3,.13-1,.04-3,.13-1,.04-3,.13-1,.04-3,.13-1,.04-3,.13-1,.04-3,.13-1,.04-3,.13-1,.04-3,.13-1,.04-3,.13-1,.04-3,.13-1,.04-3,.13-1,.04-3,.13-1,.04-3,.13-1,.04-3,.13-1,.04-3,.13-1,.04-3,.13-1,.04-3,.13-1,.04-3,.13-1,.04-3,.13-1,.04-3,.13-1,.04-3,.13-1,.04-3,.13-1,.04-3,.13-1,.04-3,.13-1,.04-3,.13-1,.04-3,.13-1,.04-3,.13-1,.04-3,.13-1,.04-3,.13-1,.04-3,.13-1,.04-3,.13-1,.04-3,.13-1,.04-3,.13-1,.04-3,.13-1,.04-3,.13-1,.04-3,.13-1,.04-3,.13-1,.04-3,.13-1,.04-3,.13-1,.04-3,.13-1,.04-3,.13-1,.04-3,.13-1,.04-3,.13-1,.04-3,.13-1,.04-3,.13-1,.04-3,.13-1,.04-3,.13-1,.04-3,.13-1,.04-3,.13-1,.04-3,.13-1,.04-3,.13-1,.04-3,.13-1,.04-3,.13-1,.04-3,.13-1,.04-3,.13-1,.04-3,.13-1,.04-3,.13-1,.04-3,.13-1,.04-3,.13-1,.04-4,.17,.02,.5,3.99-.17,1-.04,3-.13,1-.04,3-.13,1-.04,3-.13,1-.04,3-.13,1-.04,3-.13,1-.04,3-.13,1-.04,3-.13,1-.04,3-.13,1-.04,3-.13,1-.04,3-.13,1-.04,3-.13,1-.04,3-.13,1-.04,3-.13,1-.04,3-.13,1-.04,3-.13,1-.04,3-.13,1-.04,3-.13,1-.04,3-.13,1-.04,3-.13,1-.04,3-.13,1-.04,3-.13,1-.04,3-.13,1-.04,3-.13,1-.04,3-.13,1-.04,3-.13,1-.04,3-.13,1-.04,3-.13,1-.04,3-.13,1-.04,3-.13,1-.04,3-.13,1-.04,3-.13,1-.04,3-.13,1-.04,3-.13,1-.04,3-.13,1-.04,3-.13,1-.04,3-.13,1-.04,3-.13,1-.04,3-.13,1-.04,3-.13,1-.04,3-.13,1-.04,3-.13,1-.04,3-.13,1-.04,3-.13,1-.04,3-.13,1-.04,3-.13,1-.04,3-.13,1-.04,3-.13,1-.04,3-.13,1-.04,3-.13,1-.04,3-.13,1-.04,3-.13,1-.04,3-.13,1-.04,3-.13,1-.04,3-.13,1-.04,3-.13,1-.04,3-.13,1-.04,3-.13,1-.04,3-.13,1-.04,3-.13,1-.04,3-.13,1-.04,3-.13,1-.04,3-.13,1-.04,3-.13,1-.04,3-.13,1-.04,3-.13,1-.04,3-.13,1-.04,3-.13,1-.04,3-.13,1-.04,3-.13,1-.04,3-.13,1-.04,3-.13,1-.04,3.99-.17-.02-.5-3.99,.17-1,.04Z"/><path id="Path_6110" class="cls-5" d="M292.3,137.64l-3,.13-1,.04-3,.13-1,.04-3,.13-1,.04-3,.13-1,.04-3,.13-1,.04-3,.13-1,.04-3,.13-1,.04-3,.13-1,.04-3,.13-1,.04-3,.13-1,.04-3,.13-1,.04-3,.13-1,.04-3,.13-1,.04-3,.13-1,.04-3,.13-1,.04-3,.13-1,.04-3,.13-1,.04-3,.13-1,.04-3,.13-1,.04-3,.13-1,.04-3,.13-1,.04-3,.13-1,.04-3,.13-1,.04-3,.13-1,.04-3,.13-1,.04-3,.13-1,.04-3,.13-1,.04-3,.13-1,.04-3,.13-1,.04-3,.13-1,.04-3,.13-1,.04-3,.13-1,.04-3,.13-1,.04-3,.13-1,.04-3,.13-1,.04-3,.13-1,.04-3,.13-1,.04-3,.13-1,.04-3,.13-1,.04-3,.13-1,.04-3,.13-1,.04-3,.13-1,.04-3,.13-1,.04-3,.13-1,.04-3,.13-1,.04-3,.13-1,.04-3,.13-1,.04-3,.13-1,.04-3,.13-1,.04-3,.13-1,.04-3,.13-1,.04-3,.13-1,.04-3,.13-1,.04-3,.13-1,.04-3,.13-1,.04-3,.13-1,.04-3,.13-1,.04-3,.13-1,.04-3,.13-1,.04-3,.13-1,.04-3,.13-1,.04-3,.13-1,.04-3,.13-1,.04-3,.13-1,.04-3,.13-1,.04-3,.13-1,.04-3,.13-1,.04-3,.13-1,.04-3,.13-1,.04-3,.13-1,.04-3,.13-1,.04-4,.17,.02,.5,3.99-.17,1-.04,3-.13,1-.04,3-.13,1-.04,3-.13,1-.04,3-.13,1-.04,3-.13,1-.04,3-.13,1-.04,3-.13,1-.04,3-.13,1-.04,3-.13,1-.04,3-.13,1-.04,3-.13,1-.04,3-.13,1-.04,3-.13,1-.04,3-.13,1-.04,3-.13,1-.04,3-.13,1-.04,3-.13,1-.04,3-.13,1-.04,3-.13,1-.04,3-.13,1-.04,3-.13,1-.04,3-.13,1-.04,3-.13,1-.04,3-.13,1-.04,3-.13,1-.04,3-.13,1-.04,3-.13,1-.04,3-.13,1-.04,3-.13,1-.04,3-.13,1-.04,3-.13,1-.04,3-.13,1-.04,3-.13,1-.04,3-.13,1-.04,3-.13,1-.04,3-.13,1-.04,3-.13,1-.04,3-.13,1-.04,3-.13,1-.04,3-.13,1-.04,3-.13,1-.04,3-.13,1-.04,3-.13,1-.04,3-.13,1-.04,3-.13,1-.04,3-.13,1-.04,3-.13,1-.04,3-.13,1-.04,3-.13,1-.04,3-.13,1-.04,3-.13,1-.04,3-.13,1-.04,3-.13,1-.04,3-.13,1-.04,3-.13,1-.04,3-.13,1-.04,3-.13,1-.04,3-.13,1-.04,3-.13,1-.04,3-.13,1-.04,3-.13,1-.04,3-.13,1-.04,3-.13,1-.04,3-.13,1-.04,3-.13,1-.04,3-.13,1-.04,3-.13,1-.04,3-.13,1-.04,3-.13,1-.04,3-.13,1-.04,3-.13,1-.04,3.99-.17-.02-.5-3.99,.17-1,.04Z"/><path id="Path_6111" class="cls-5" d="M293.23,159.63l-3,.13-1,.04-3,.13-1,.04-3,.13-1,.04-3,.13-1,.04-3,.13-1,.04-3,.13-1,.04-3,.13-1,.04-3,.13-1,.04-3,.13-1,.04-3,.13-1,.04-3,.13-1,.04-3,.13-1,.04-3,.13-1,.04-3,.13-1,.04-3,.13-1,.04-3,.13-1,.04-3,.13-1,.04-3,.13-1,.04-3,.13-1,.04-3,.13-1,.04-3,.13-1,.04-3,.13-1,.04-3,.13-1,.04-3,.13-1,.04-3,.13-1,.04-3,.13-1,.04-3,.13-1,.04-3,.13-1,.04-3,.13-1,.04-3,.13-1,.04-3,.13-1,.04-3,.13-1,.04-3,.13-1,.04-3,.13-1,.04-3,.13-1,.04-3,.13-1,.04-3,.13-1,.04-3,.13-1,.04-3,.13-1,.04-3,.13-1,.04-3,.13-1,.04-3,.13-1,.04-3,.13-1,.04-3,.13-1,.04-3,.13-1,.04-3,.13-1,.04-3,.13-1,.04-3,.13-1,.04-3,.13-1,.04-3,.13-1,.04-3,.13-1,.04-3,.13-1,.04-3,.13-1,.04-3,.13-1,.04-3,.13-1,.04-3,.13-1,.04-3,.13-1,.04-3,.13-1,.04-3,.13-1,.04-3,.13-1,.04-3,.13-1,.04-3,.13-1,.04-3,.13-1,.04-3,.13-1,.04-3,.13-1,.04-3,.13-1,.04-3,.13-1,.04-3,.13-1,.04-3,.13-1,.04-3,.13-1,.04-3,.13-1,.04-3.99,.17,.02,.5,3.99-.17,1-.04,3-.13,1-.04,3-.13,1-.04,3-.13,1-.04,3-.13,1-.04,3-.13,1-.04,3-.13,1-.04,3-.13,1-.04,3-.13,1-.04,3-.13,1-.04,3-.13,1-.04,3-.13,1-.04,3-.13,1-.04,3-.13,1-.04,3-.13,1-.04,3-.13,1-.04,3-.13,1-.04,3-.13,1-.04,3-.13,1-.04,3-.13,1-.04,3-.13,1-.04,3-.13,1-.04,3-.13,1-.04,3-.13,1-.04,3-.13,1-.04,3-.13,1-.04,3-.13,1-.04,3-.13,1-.04,3-.13,1-.04,3-.13,1-.04,3-.13,1-.04,3-.13,1-.04,3-.13,1-.04,3-.13,1-.04,3-.13,1-.04,3-.13,1-.04,3-.13,1-.04,3-.13,1-.04,3-.13,1-.04,3-.13,1-.04,3-.13,1-.04,3-.13,1-.04,3-.13,1-.04,3-.13,1-.04,3-.13,1-.04,3-.13,1-.04,3-.13,1-.04,3-.13,1-.04,3-.13,1-.04,3-.13,1-.04,3-.13,1-.04,3-.13,1-.04,3-.13,1-.04,3-.13,1-.04,3-.13,1-.04,3-.13,1-.04,3-.13,1-.04,3-.13,1-.04,3-.13,1-.04,3-.13,1-.04,3-.13,1-.04,3-.13,1-.04,3-.13,1-.04,3-.13,1-.04,3-.13,1-.04,3-.13,1-.04,3-.13,1-.04,3-.13,1-.04,3-.13,1-.04,3-.13,1-.04,3-.13,1-.04,3-.13,1-.04,3.99-.17-.02-.5-3.99,.17-1,.04Z"/><path id="Path_6112" class="cls-5" d="M294.16,181.61l-3,.13-1,.04-3,.13-1,.04-3,.13-1,.04-3,.13-1,.04-3,.13-1,.04-3,.13-1,.04-3,.13-1,.04-3,.13-1,.04-3,.13-1,.04-3,.13-1,.04-3,.13-1,.04-3,.13-1,.04-3,.13-1,.04-3,.13-1,.04-3,.13-1,.04-3,.13-1,.04-3,.13-1,.04-3,.13-1,.04-3,.13-1,.04-3,.13-1,.04-3,.13-1,.04-3,.13-1,.04-3,.13-1,.04-3,.13-1,.04-3,.13-1,.04-3,.13-1,.04-3,.13-1,.04-3,.13-1,.04-3,.13-1,.04-3,.13-1,.04-3,.13-1,.04-3,.13-1,.04-3,.13-1,.04-3,.13-1,.04-3,.13-1,.04-3,.13-1,.04-3,.13-1,.04-3,.13-1,.04-3,.13-1,.04-3,.13-1,.04-3,.13-1,.04-3,.13-1,.04-3,.13-1,.04-3,.13-1,.04-3,.13-1,.04-3,.13-1,.04-3,.13-1,.04-3,.13-1,.04-3,.13-1,.04-3,.13-1,.04-3,.13-1,.04-3,.13-1,.04-3,.13-1,.04-3,.13-1,.04-3,.13-1,.04-3,.13-1,.04-3,.13-1,.04-3,.13-1,.04-3,.13-1,.04-3,.13-1,.04-3,.13-1,.04-3,.13-1,.04-3,.13-1,.04-3,.13-1,.04-3,.13-1,.04-3,.13-1,.04-3,.13-1,.04-3,.13-1,.04-3,.13-1,.04-3,.13-1,.04-3,.13-1,.04-3.99,.17,.02,.5,3.99-.17,1-.04,3-.13,1-.04,3-.13,1-.04,3-.13,1-.04,3-.13,1-.04,3-.13,1-.04,3-.13,1-.04,3-.13,1-.04,3-.13,1-.04,3-.13,1-.04,3-.13,1-.04,3-.13,1-.04,3-.13,1-.04,3-.13,1-.04,3-.13,1-.04,3-.13,1-.04,3-.13,1-.04,3-.13,1-.04,3-.13,1-.04,3-.13,1-.04,3-.13,1-.04,3-.13,1-.04,3-.13,1-.04,3-.13,1-.04,3-.13,1-.04,3-.13,1-.04,3-.13,1-.04,3-.13,1-.04,3-.13,1-.04,3-.13,1-.04,3-.13,1-.04,3-.13,1-.04,3-.13,1-.04,3-.13,1-.04,3-.13,1-.04,3-.13,1-.04,3-.13,1-.04,3-.13,1-.04,3-.13,1-.04,3-.13,1-.04,3-.13,1-.04,3-.13,1-.04,3-.13,1-.04,3-.13,1-.04,3-.13,1-.04,3-.13,1-.04,3-.13,1-.04,3-.13,1-.04,3-.13,1-.04,3-.13,1-.04,3-.13,1-.04,3-.13,1-.04,3-.13,1-.04,3-.13,1-.04,3-.13,1-.04,3-.13,1-.04,3-.13,1-.04,3-.13,1-.04,3-.13,1-.04,3-.13,1-.04,3-.13,1-.04,3-.13,1-.04,3-.13,1-.04,3-.13,1-.04,3-.13,1-.04,3-.13,1-.04,3-.13,1-.04,3-.13,1-.04,3-.13,1-.04,3-.13,1-.04,3-.13,1-.04,3-.13,1-.04,3.99-.17-.02-.5-3.99,.17-1,.04Z"/><path id="Path_6113" class="cls-5" d="M295.09,203.6l-3,.13-1,.04-3,.13-1,.04-3,.13-1,.04-3,.13-1,.04-3,.13-1,.04-3,.13-1,.04-3,.13-1,.04-3,.13-1,.04-3,.13-1,.04-3,.13-1,.04-3,.13-1,.04-3,.13-1,.04-3,.13-1,.04-3,.13-1,.04-3,.13-1,.04-3,.13-1,.04-3,.13-1,.04-3,.13-1,.04-3,.13-1,.04-3,.13-1,.04-3,.13-1,.04-3,.13-1,.04-3,.13-1,.04-3,.13-1,.04-3,.13-1,.04-3,.13-1,.04-3,.13-1,.04-3,.13-1,.04-3,.13-1,.04-3,.13-1,.04-3,.13-1,.04-3,.13-1,.04-3,.13-1,.04-3,.13-1,.04-3,.13-1,.04-3,.13-1,.04-3,.13-1,.04-3,.13-1,.04-3,.13-1,.04-3,.13-1,.04-3,.13-1,.04-3,.13-1,.04-3,.13-1,.04-3,.13-1,.04-3,.13-1,.04-3,.13-1,.04-3,.13-1,.04-3,.13-1,.04-3,.13-1,.04-3,.13-1,.04-3,.13-1,.04-3,.13-1,.04-3,.13-1,.04-3,.13-1,.04-3,.13-1,.04-3,.13-1,.04-3,.13-1,.04-3,.13-1,.04-3,.13-1,.04-3,.13-1,.04-3,.13-1,.04-3,.13-1,.04-3,.13-1,.04-3,.13-1,.04-3,.13-1,.04-3,.13-1,.04-3,.13-1,.04-3,.13-1,.04-3,.13-1,.04-3,.13-1,.04-3,.13-1,.04-4,.17,.02,.5,3.99-.17,1-.04,3-.13,1-.04,3-.13,1-.04,3-.13,1-.04,3-.13,1-.04,3-.13,1-.04,3-.13,1-.04,3-.13,1-.04,3-.13,1-.04,3-.13,1-.04,3-.13,1-.04,3-.13,1-.04,3-.13,1-.04,3-.13,1-.04,3-.13,1-.04,3-.13,1-.04,3-.13,1-.04,3-.13,1-.04,3-.13,1-.04,3-.13,1-.04,3-.13,1-.04,3-.13,1-.04,3-.13,1-.04,3-.13,1-.04,3-.13,1-.04,3-.13,1-.04,3-.13,1-.04,3-.13,1-.04,3-.13,1-.04,3-.13,1-.04,3-.13,1-.04,3-.13,1-.04,3-.13,1-.04,3-.13,1-.04,3-.13,1-.04,3-.13,1-.04,3-.13,1-.04,3-.13,1-.04,3-.13,1-.04,3-.13,1-.04,3-.13,1-.04,3-.13,1-.04,3-.13,1-.04,3-.13,1-.04,3-.13,1-.04,3-.13,1-.04,3-.13,1-.04,3-.13,1-.04,3-.13,1-.04,3-.13,1-.04,3-.13,1-.04,3-.13,1-.04,3-.13,1-.04,3-.13,1-.04,3-.13,1-.04,3-.13,1-.04,3-.13,1-.04,3-.13,1-.04,3-.13,1-.04,3-.13,1-.04,3-.13,1-.04,3-.13,1-.04,3-.13,1-.04,3-.13,1-.04,3-.13,1-.04,3-.13,1-.04,3-.13,1-.04,3-.13,1-.04,3-.13,1-.04,3-.13,1-.04,3-.13,1-.04,3-.13,1-.04,3.99-.17-.02-.5-3.99,.17-1,.04Z"/><path id="Path_6114" class="cls-5" d="M296.02,225.58l-3,.13-1,.04-3,.13-1,.04-3,.13-1,.04-3,.13-1,.04-3,.13-1,.04-3,.13-1,.04-3,.13-1,.04-3,.13-1,.04-3,.13-1,.04-3,.13-1,.04-3,.13-1,.04-3,.13-1,.04-3,.13-1,.04-3,.13-1,.04-3,.13-1,.04-3,.13-1,.04-3,.13-1,.04-3,.13-1,.04-3,.13-1,.04-3,.13-1,.04-3,.13-1,.04-3,.13-1,.04-3,.13-1,.04-3,.13-1,.04-3,.13-1,.04-3,.13-1,.04-3,.13-1,.04-3,.13-1,.04-3,.13-1,.04-3,.13-1,.04-3,.13-1,.04-3,.13-1,.04-3,.13-1,.04-3,.13-1,.04-3,.13-1,.04-3,.13-1,.04-3,.13-1,.04-3,.13-1,.04-3,.13-1,.04-3,.13-1,.04-3,.13-1,.04-3,.13-1,.04-3,.13-1,.04-3,.13-1,.04-3,.13-1,.04-3,.13-1,.04-3,.13-1,.04-3,.13-1,.04-3,.13-1,.04-3,.13-1,.04-3,.13-1,.04-3,.13-1,.04-3,.13-1,.04-3,.13-1,.04-3,.13-1,.04-3,.13-1,.04-3,.13-1,.04-3,.13-1,.04-3,.13-1,.04-3,.13-1,.04-3,.13-1,.04-3,.13-1,.04-3,.13-1,.04-3,.13-1,.04-3,.13-1,.04-3,.13-1,.04-3,.13-1,.04-3,.13-1,.04-3,.13-1,.04-3,.13-1,.04-3,.13-1,.04-4,.17,.02,.5,3.99-.17,1-.04,3-.13,1-.04,3-.13,1-.04,3-.13,1-.04,3-.13,1-.04,3-.13,1-.04,3-.13,1-.04,3-.13,1-.04,3-.13,1-.04,3-.13,1-.04,3-.13,1-.04,3-.13,1-.04,3-.13,1-.04,3-.13,1-.04,3-.13,1-.04,3-.13,1-.04,3-.13,1-.04,3-.13,1-.04,3-.13,1-.04,3-.13,1-.04,3-.13,1-.04,3-.13,1-.04,3-.13,1-.04,3-.13,1-.04,3-.13,1-.04,3-.13,1-.04,3-.13,1-.04,3-.13,1-.04,3-.13,1-.04,3-.13,1-.04,3-.13,1-.04,3-.13,1-.04,3-.13,1-.04,3-.13,1-.04,3-.13,1-.04,3-.13,1-.04,3-.13,1-.04,3-.13,1-.04,3-.13,1-.04,3-.13,1-.04,3-.13,1-.04,3-.13,1-.04,3-.13,1-.04,3-.13,1-.04,3-.13,1-.04,3-.13,1-.04,3-.13,1-.04,3-.13,1-.04,3-.13,1-.04,3-.13,1-.04,3-.13,1-.04,3-.13,1-.04,3-.13,1-.04,3-.13,1-.04,3-.13,1-.04,3-.13,1-.04,3-.13,1-.04,3-.13,1-.04,3-.13,1-.04,3-.13,1-.04,3-.13,1-.04,3-.13,1-.04,3-.13,1-.04,3-.13,1-.04,3-.13,1-.04,3-.13,1-.04,3-.13,1-.04,3-.13,1-.04,3-.13,1-.04,3-.13,1-.04,3-.13,1-.04,3-.13,1-.04,3.99-.17-.02-.5-3.99,.17-1,.04Z"/><path id="Path_6115" class="cls-5" d="M296.94,247.56l-3,.13-1,.04-3,.13-1,.04-3,.13-1,.04-3,.13-1,.04-3,.13-1,.04-3,.13-1,.04-3,.13-1,.04-3,.13-1,.04-3,.13-1,.04-3,.13-1,.04-3,.13-1,.04-3,.13-1,.04-3,.13-1,.04-3,.13-1,.04-3,.13-1,.04-3,.13-1,.04-3,.13-1,.04-3,.13-1,.04-3,.13-1,.04-3,.13-1,.04-3,.13-1,.04-3,.13-1,.04-3,.13-1,.04-3,.13-1,.04-3,.13-1,.04-3,.13-1,.04-3,.13-1,.04-3,.13-1,.04-3,.13-1,.04-3,.13-1,.04-3,.13-1,.04-3,.13-1,.04-3,.13-1,.04-3,.13-1,.04-3,.13-1,.04-3,.13-1,.04-3,.13-1,.04-3,.13-1,.04-3,.13-1,.04-3,.13-1,.04-3,.13-1,.04-3,.13-1,.04-3,.13-1,.04-3,.13-1,.04-3,.13-1,.04-3,.13-1,.04-3,.13-1,.04-3,.13-1,.04-3,.13-1,.04-3,.13-1,.04-3,.13-1,.04-3,.13-1,.04-3,.13-1,.04-3,.13-1,.04-3,.13-1,.04-3,.13-1,.04-3,.13-1,.04-3,.13-1,.04-3,.13-1,.04-3,.13-1,.04-3,.13-1,.04-3,.13-1,.04-3,.13-1,.04-3,.13-1,.04-3,.13-1,.04-3,.13-1,.04-3,.13-1,.04-3,.13-1,.04-3,.13-1,.04-3,.13-1,.04-3,.13-1,.04-3.99,.17,.02,.5,3.99-.17,1-.04,3-.13,1-.04,3-.13,1-.04,3-.13,1-.04,3-.13,1-.04,3-.13,1-.04,3-.13,1-.04,3-.13,1-.04,3-.13,1-.04,3-.13,1-.04,3-.13,1-.04,3-.13,1-.04,3-.13,1-.04,3-.13,1-.04,3-.13,1-.04,3-.13,1-.04,3-.13,1-.04,3-.13,1-.04,3-.13,1-.04,3-.13,1-.04,3-.13,1-.04,3-.13,1-.04,3-.13,1-.04,3-.13,1-.04,3-.13,1-.04,3-.13,1-.04,3-.13,1-.04,3-.13,1-.04,3-.13,1-.04,3-.13,1-.04,3-.13,1-.04,3-.13,1-.04,3-.13,1-.04,3-.13,1-.04,3-.13,1-.04,3-.13,1-.04,3-.13,1-.04,3-.13,1-.04,3-.13,1-.04,3-.13,1-.04,3-.13,1-.04,3-.13,1-.04,3-.13,1-.04,3-.13,1-.04,3-.13,1-.04,3-.13,1-.04,3-.13,1-.04,3-.13,1-.04,3-.13,1-.04,3-.13,1-.04,3-.13,1-.04,3-.13,1-.04,3-.13,1-.04,3-.13,1-.04,3-.13,1-.04,3-.13,1-.04,3-.13,1-.04,3-.13,1-.04,3-.13,1-.04,3-.13,1-.04,3-.13,1-.04,3-.13,1-.04,3-.13,1-.04,3-.13,1-.04,3-.13,1-.04,3-.13,1-.04,3-.13,1-.04,3-.13,1-.04,3-.13,1-.04,3-.13,1-.04,3-.13,1-.04,3-.13,1-.04,3.99-.17-.02-.5-3.99,.17-1,.04Z"/><path id="Path_6116" class="cls-5" d="M297.87,269.55l-3,.13-1,.04-3,.13-1,.04-3,.13-1,.04-3,.13-1,.04-3,.13-1,.04-3,.13-1,.04-3,.13-1,.04-3,.13-1,.04-3,.13-1,.04-3,.13-1,.04-3,.13-1,.04-3,.13-1,.04-3,.13-1,.04-3,.13-1,.04-3,.13-1,.04-3,.13-1,.04-3,.13-1,.04-3,.13-1,.04-3,.13-1,.04-3,.13-1,.04-3,.13-1,.04-3,.13-1,.04-3,.13-1,.04-3,.13-1,.04-3,.13-1,.04-3,.13-1,.04-3,.13-1,.04-3,.13-1,.04-3,.13-1,.04-3,.13-1,.04-3,.13-1,.04-3,.13-1,.04-3,.13-1,.04-3,.13-1,.04-3,.13-1,.04-3,.13-1,.04-3,.13-1,.04-3,.13-1,.04-3,.13-1,.04-3,.13-1,.04-3,.13-1,.04-3,.13-1,.04-3,.13-1,.04-3,.13-1,.04-3,.13-1,.04-3,.13-1,.04-3,.13-1,.04-3,.13-1,.04-3,.13-1,.04-3,.13-1,.04-3,.13-1,.04-3,.13-1,.04-3,.13-1,.04-3,.13-1,.04-3,.13-1,.04-3,.13-1,.04-3,.13-1,.04-3,.13-1,.04-3,.13-1,.04-3,.13-1,.04-3,.13-1,.04-3,.13-1,.04-3,.13-1,.04-3,.13-1,.04-3,.13-1,.04-3,.13-1,.04-3,.13-1,.04-3,.13-1,.04-3,.13-1,.04-3,.13-1,.04-3,.13-1,.04-3.99,.17,.02,.5,3.99-.17,1-.04,3-.13,1-.04,3-.13,1-.04,3-.13,1-.04,3-.13,1-.04,3-.13,1-.04,3-.13,1-.04,3-.13,1-.04,3-.13,1-.04,3-.13,1-.04,3-.13,1-.04,3-.13,1-.04,3-.13,1-.04,3-.13,1-.04,3-.13,1-.04,3-.13,1-.04,3-.13,1-.04,3-.13,1-.04,3-.13,1-.04,3-.13,1-.04,3-.13,1-.04,3-.13,1-.04,3-.13,1-.04,3-.13,1-.04,3-.13,1-.04,3-.13,1-.04,3-.13,1-.04,3-.13,1-.04,3-.13,1-.04,3-.13,1-.04,3-.13,1-.04,3-.13,1-.04,3-.13,1-.04,3-.13,1-.04,3-.13,1-.04,3-.13,1-.04,3-.13,1-.04,3-.13,1-.04,3-.13,1-.04,3-.13,1-.04,3-.13,1-.04,3-.13,1-.04,3-.13,1-.04,3-.13,1-.04,3-.13,1-.04,3-.13,1-.04,3-.13,1-.04,3-.13,1-.04,3-.13,1-.04,3-.13,1-.04,3-.13,1-.04,3-.13,1-.04,3-.13,1-.04,3-.13,1-.04,3-.13,1-.04,3-.13,1-.04,3-.13,1-.04,3-.13,1-.04,3-.13,1-.04,3-.13,1-.04,3-.13,1-.04,3-.13,1-.04,3-.13,1-.04,3-.13,1-.04,3-.13,1-.04,3-.13,1-.04,3-.13,1-.04,3-.13,1-.04,3-.13,1-.04,3-.13,1-.04,3-.13,1-.04,3-.13,1-.04,3.99-.17-.02-.5-3.99,.17-1,.04Z"/><path id="Path_6117" class="cls-5" d="M298.8,291.53l-3,.13-1,.04-3,.13-1,.04-3,.13-1,.04-3,.13-1,.04-3,.13-1,.04-3,.13-1,.04-3,.13-1,.04-3,.13-1,.04-3,.13-1,.04-3,.13-1,.04-3,.13-1,.04-3,.13-1,.04-3,.13-1,.04-3,.13-1,.04-3,.13-1,.04-3,.13-1,.04-3,.13-1,.04-3,.13-1,.04-3,.13-1,.04-3,.13-1,.04-3,.13-1,.04-3,.13-1,.04-3,.13-1,.04-3,.13-1,.04-3,.13-1,.04-3,.13-1,.04-3,.13-1,.04-3,.13-1,.04-3,.13-1,.04-3,.13-1,.04-3,.13-1,.04-3,.13-1,.04-3,.13-1,.04-3,.13-1,.04-3,.13-1,.04-3,.13-1,.04-3,.13-1,.04-3,.13-1,.04-3,.13-1,.04-3,.13-1,.04-3,.13-1,.04-3,.13-1,.04-3,.13-1,.04-3,.13-1,.04-3,.13-1,.04-3,.13-1,.04-3,.13-1,.04-3,.13-1,.04-3,.13-1,.04-3,.13-1,.04-3,.13-1,.04-3,.13-1,.04-3,.13-1,.04-3,.13-1,.04-3,.13-1,.04-3,.13-1,.04-3,.13-1,.04-3,.13-1,.04-3,.13-1,.04-3,.13-1,.04-3,.13-1,.04-3,.13-1,.04-3,.13-1,.04-3,.13-1,.04-3,.13-1,.04-3,.13-1,.04-3,.13-1,.04-3,.13-1,.04-3,.13-1,.04-3,.13-1,.04-3,.13-1,.04-4,.17,.02,.5,3.99-.17,1-.04,3-.13,1-.04,3-.13,1-.04,3-.13,1-.04,3-.13,1-.04,3-.13,1-.04,3-.13,1-.04,3-.13,1-.04,3-.13,1-.04,3-.13,1-.04,3-.13,1-.04,3-.13,1-.04,3-.13,1-.04,3-.13,1-.04,3-.13,1-.04,3-.13,1-.04,3-.13,1-.04,3-.13,1-.04,3-.13,1-.04,3-.13,1-.04,3-.13,1-.04,3-.13,1-.04,3-.13,1-.04,3-.13,1-.04,3-.13,1-.04,3-.13,1-.04,3-.13,1-.04,3-.13,1-.04,3-.13,1-.04,3-.13,1-.04,3-.13,1-.04,3-.13,1-.04,3-.13,1-.04,3-.13,1-.04,3-.13,1-.04,3-.13,1-.04,3-.13,1-.04,3-.13,1-.04,3-.13,1-.04,3-.13,1-.04,3-.13,1-.04,3-.13,1-.04,3-.13,1-.04,3-.13,1-.04,3-.13,1-.04,3-.13,1-.04,3-.13,1-.04,3-.13,1-.04,3-.13,1-.04,3-.13,1-.04,3-.13,1-.04,3-.13,1-.04,3-.13,1-.04,3-.13,1-.04,3-.13,1-.04,3-.13,1-.04,3-.13,1-.04,3-.13,1-.04,3-.13,1-.04,3-.13,1-.04,3-.13,1-.04,3-.13,1-.04,3-.13,1-.04,3-.13,1-.04,3-.13,1-.04,3-.13,1-.04,3-.13,1-.04,3-.13,1-.04,3-.13,1-.04,3-.13,1-.04,3-.13,1-.04,3-.13,1-.04,3.99-.17-.02-.5-3.99,.17-1,.04Z"/><path id="Path_6118" class="cls-5" d="M299.73,313.51l-3,.13-1,.04-3,.13-1,.04-3,.13-1,.04-3,.13-1,.04-3,.13-1,.04-3,.13-1,.04-3,.13-1,.04-3,.13-1,.04-3,.13-1,.04-3,.13-1,.04-3,.13-1,.04-3,.13-1,.04-3,.13-1,.04-3,.13-1,.04-3,.13-1,.04-3,.13-1,.04-3,.13-1,.04-3,.13-1,.04-3,.13-1,.04-3,.13-1,.04-3,.13-1,.04-3,.13-1,.04-3,.13-1,.04-3,.13-1,.04-3,.13-1,.04-3,.13-1,.04-3,.13-1,.04-3,.13-1,.04-3,.13-1,.04-3,.13-1,.04-3,.13-1,.04-3,.13-1,.04-3,.13-1,.04-3,.13-1,.04-3,.13-1,.04-3,.13-1,.04-3,.13-1,.04-3,.13-1,.04-3,.13-1,.04-3,.13-1,.04-3,.13-1,.04-3,.13-1,.04-3,.13-1,.04-3,.13-1,.04-3,.13-1,.04-3,.13-1,.04-3,.13-1,.04-3,.13-1,.04-3,.13-1,.04-3,.13-1,.04-3,.13-1,.04-3,.13-1,.04-3,.13-1,.04-3,.13-1,.04-3,.13-1,.04-3,.13-1,.04-3,.13-1,.04-3,.13-1,.04-3,.13-1,.04-3,.13-1,.04-3,.13-1,.04-3,.13-1,.04-3,.13-1,.04-3,.13-1,.04-3,.13-1,.04-3,.13-1,.04-3,.13-1,.04-3,.13-1,.04-3,.13-1,.04-3,.13-1,.04-3,.13-1,.04-4,.17,.02,.5,3.99-.17,1-.04,3-.13,1-.04,3-.13,1-.04,3-.13,1-.04,3-.13,1-.04,3-.13,1-.04,3-.13,1-.04,3-.13,1-.04,3-.13,1-.04,3-.13,1-.04,3-.13,1-.04,3-.13,1-.04,3-.13,1-.04,3-.13,1-.04,3-.13,1-.04,3-.13,1-.04,3-.13,1-.04,3-.13,1-.04,3-.13,1-.04,3-.13,1-.04,3-.13,1-.04,3-.13,1-.04,3-.13,1-.04,3-.13,1-.04,3-.13,1-.04,3-.13,1-.04,3-.13,1-.04,3-.13,1-.04,3-.13,1-.04,3-.13,1-.04,3-.13,1-.04,3-.13,1-.04,3-.13,1-.04,3-.13,1-.04,3-.13,1-.04,3-.13,1-.04,3-.13,1-.04,3-.13,1-.04,3-.13,1-.04,3-.13,1-.04,3-.13,1-.04,3-.13,1-.04,3-.13,1-.04,3-.13,1-.04,3-.13,1-.04,3-.13,1-.04,3-.13,1-.04,3-.13,1-.04,3-.13,1-.04,3-.13,1-.04,3-.13,1-.04,3-.13,1-.04,3-.13,1-.04,3-.13,1-.04,3-.13,1-.04,3-.13,1-.04,3-.13,1-.04,3-.13,1-.04,3-.13,1-.04,3-.13,1-.04,3-.13,1-.04,3-.13,1-.04,3-.13,1-.04,3-.13,1-.04,3-.13,1-.04,3-.13,1-.04,3-.13,1-.04,3-.13,1-.04,3-.13,1-.04,3-.13,1-.04,3-.13,1-.04,3-.13,1-.04,3.99-.17-.02-.5-3.99,.17-1,.04Z"/><rect id="Rectangle_842" class="cls-4" x="57.75" y="37.35" width=".73" height="292.9" transform="translate(-7.8 2.65) rotate(-2.45)"/><g id="Group_390" class="cls-10"><g id="Group_389"><g class="cls-8"><g id="Group_388"><path id="Path_6119" class="cls-7" d="M27.86,69.9c3.13-.52,6.18-1.45,9.06-2.77,3.62-1.65,7.07-3.92,11.01-4.48L33.97,8.64c-1.47,.59-3.4,.87-4.73,1.27-3.87,1.17-7.75,2.28-11.65,3.32-4.23,1.12-8.48,2.17-12.73,3.2l14.5,56.1c1.25-.52,2.46-1.22,3.74-1.67,1.56-.46,3.15-.78,4.77-.97"/></g></g></g></g><g id="Group_393" class="cls-10"><g id="Group_392"><g class="cls-9"><g id="Group_391"><path id="Path_6120" class="cls-7" d="M251.92,0l-7.83,57.31c4.23,.21,8.43,.71,12.59,1.49,1.71,.44,3.48,.59,5.24,.47,.67-.16,1.36-.2,2.04-.12,.5,.17,.98,.38,1.44,.62,.75,.26,1.53,.38,2.32,.38,1.77,.24,4.64-.4,6.35,.38L282.13,1.51c-5.82-.61-11.68-.88-17.53-.81-4.24,.06-8.61,.28-12.69-.7"/></g></g></g></g></g></g></svg>